<?xml version="1.0" encoding="utf-8"?>
<!-- Generator: Adobe Illustrator 23.0.6, SVG Export Plug-In . SVG Version: 6.00 Build 0)  -->
<svg version="1.1" id="Layer_1" xmlns="http://www.w3.org/2000/svg" xmlns:xlink="http://www.w3.org/1999/xlink" x="0px" y="0px"
	 viewBox="0 0 800 800" style="enable-background:new 0 0 800 800;" xml:space="preserve">
<style type="text/css">
	.st0{fill:#ED2924;}
	.st1{fill:#338ED1;}
</style>
<title>logoColor</title>
<path class="st0" d="M229.9,383.4l-20.4-0.1c2.1-9.6,4.6-16.5,11.8-21.9c5.5-4.1,14-5.9,25-5.9c10.1,0,17.6,1.2,22.5,3.6
	s8.4,5.4,10.4,9.1c2,3.7,3,10.4,3,20.2l-0.2,26.3c0,7.5,0.4,13,1.1,16.6c0.9,4,2.2,7.8,4.1,11.4h-22.3c-0.6-1.5-1.3-3.7-2.2-6.7
	c-0.4-1.3-0.6-2.2-0.8-2.6c-3.6,3.6-7.8,6.4-12.4,8.4c-4.4,1.9-9.2,2.8-14.1,2.8c-8.8,0-15.7-2.4-20.8-7.1c-5-4.6-7.8-11.2-7.6-18.1
	c-0.1-4.5,1.1-9,3.4-12.9c2.3-3.8,5.7-6.8,9.7-8.7c4.2-2,10.1-3.8,17.9-5.3c10.5-2,17.8-3.8,21.9-5.5v-2.3c0-4.3-1.1-7.4-3.2-9.3
	c-2.1-1.8-6.2-2.8-12.1-2.8c-4,0-7.1,0.8-9.4,2.4C233.1,376.7,231.3,379.4,229.9,383.4z M260.1,401.7c-2.9,1-7.5,2.1-13.7,3.5
	s-10.4,2.7-12.3,3.9c-2.7,1.7-4.4,4.7-4.4,8c0,3.1,1.3,6.1,3.5,8.2c2.4,2.3,5.7,3.6,9,3.5c4.2,0,8.3-1.4,11.6-4
	c2.6-1.8,4.5-4.4,5.4-7.5c0.6-1.9,0.9-5.6,0.9-11L260.1,401.7L260.1,401.7z"/>
<path class="st0" d="M294.5,442.6V325H317v117.6L294.5,442.6L294.5,442.6z"/>
<path class="st0" d="M330.1,442.6V325h22.6v117.6L330.1,442.6L330.1,442.6z"/>
<path class="st1" d="M365.1,357.4h21v12.5c2.8-4.3,6.6-7.9,11.1-10.4c4.7-2.7,10.1-4.1,15.5-4c9.9,0,18.3,3.9,25.2,11.6
	s10.4,18.6,10.4,32.4c0,14.2-3.5,25.3-10.4,33.2c-7,7.9-15.4,11.8-25.3,11.8c-4.4,0.1-8.8-0.9-12.8-2.8c-3.8-1.9-7.9-5.1-12.1-9.6
	v42.9h-22.5V357.4z M387.4,398.6c0,9.6,1.9,16.7,5.7,21.2c3.8,4.6,8.4,6.9,13.9,6.9c5.1,0.1,9.9-2.3,13.1-6.3
	c3.5-4.2,5.2-11.1,5.2-20.7c0-8.9-1.8-15.6-5.4-19.9c-3.2-4.1-8.1-6.5-13.3-6.5c-5.3-0.1-10.4,2.3-13.7,6.4
	C389.3,383.9,387.4,390.2,387.4,398.6z"/>
<path class="st1" d="M477.8,442.6h-22.6v-85.2h21v12.1c3.6-5.7,5.4-8,8.3-9.9s7.7-2.7,11.3-2.7c3.3,0,6.6,0.1,9.9,0.4l-0.8,18
	c-6.9-0.1-7.2,0.4-10.5,0.4s-7.4,0.9-9.6,2.6s-3.9,4.9-5.2,9.4s-1.9,14.1-1.9,28.6V442.6L477.8,442.6z"/>
<path class="st1" d="M504.9,398.8c0-7.6,1.9-15.1,5.5-21.8c3.5-6.8,9-12.4,15.7-16c7-3.7,14.8-5.6,22.7-5.5
	c12.9,0,23.5,4.2,31.7,12.6c8.2,8.4,12.4,19,12.4,31.8c0,12.9-4.2,23.6-12.5,32.1c-8.3,8.5-18.8,12.7-31.4,12.7
	c-7.8,0-15.4-1.8-22.4-5.3c-6.9-3.3-12.6-8.8-16.2-15.5C506.7,416.9,504.9,408.6,504.9,398.8z M528,400c0,8.5,2,14.9,6,19.4
	c7.2,8.2,19.6,9,27.8,1.9c0.7-0.6,1.3-1.2,1.9-1.9c4-4.5,6-11,6-19.6c0-8.3-2-14.8-6-19.3c-7.1-8.2-19.6-9-27.8-1.9
	c-0.7,0.6-1.3,1.2-1.9,1.9C530,385.1,528,391.5,528,400z"/>
</svg>
