<svg xmlns="http://www.w3.org/2000/svg" xmlns:xlink="http://www.w3.org/1999/xlink" viewBox="0 0 800 800"><defs><style>.a{fill:none;}.b{fill:#f7c628;}.c,.i{fill:#231f20;}.d{fill:#cac9c9;stroke:#7c7a7d;}.d,.e{stroke-miterlimit:10;stroke-width:0.7px;}.e,.h{fill:#fff;}.e{stroke:#acaead;}.f{clip-path:url(#a);}.g{fill:#3173aa;}.i{opacity:0.3;isolation:isolate;}.j{fill:#b11f2d;}</style><clipPath id="a"><path class="a" d="M215.82,356.34l-51.29,17.87c5.78,47.47,51.28,69.45,51.28,69.45h0s45.5-22,51.28-69.45Z"/></clipPath></defs><title>logoColor</title><path class="b" d="M321.53,414.85a2.16,2.16,0,0,1-1.46.44h-26V383.22a2.2,2.2,0,0,1,.43-1.47,2.88,2.88,0,0,1,1.55-.79v-1H282.9v1a3.23,3.23,0,0,1,1.55.8,2.18,2.18,0,0,1,.43,1.46V419a2.16,2.16,0,0,1-.43,1.46,3.23,3.23,0,0,1-1.55.81v1h37.17a2.18,2.18,0,0,1,1.46.43,3.23,3.23,0,0,1,.8,1.55h1V413.31h-1A3.06,3.06,0,0,1,321.53,414.85Z"/><path class="b" d="M328.45,392.12a3,3,0,0,1,1.35.74,2,2,0,0,1,.37,1.3v25.3a2,2,0,0,1-.39,1.33,2.56,2.56,0,0,1-1.33.72v.77h10.68v-.77a2.82,2.82,0,0,1-1.35-.76,2,2,0,0,1-.38-1.31V394.16a2,2,0,0,1,.38-1.31,2.66,2.66,0,0,1,1.35-.73v-.77H328.45v.77Z"/><path class="b" d="M371.19,392.12a2.75,2.75,0,0,1,1.35.73,2,2,0,0,1,.38,1.31v17l-16.21-16.46a2.45,2.45,0,0,1-.86-1.54c0-.52.4-.88,1.19-1.08v-.78h-11.6v.78a2.9,2.9,0,0,1,1.35.74,2,2,0,0,1,.37,1.3v25.3a2,2,0,0,1-.39,1.33,2.56,2.56,0,0,1-1.33.72v.77h10v-.77a2.81,2.81,0,0,1-1.34-.75,2,2,0,0,1-.39-1.32V401.9l16,16.18c.78.8,1.27,1.34,1.49,1.62a1.32,1.32,0,0,1,.32.79c0,.52-.39.85-1.19,1v.77h10.82v-.77a2.82,2.82,0,0,1-1.35-.76,2,2,0,0,1-.37-1.31V394.16a2,2,0,0,1,.37-1.31,2.66,2.66,0,0,1,1.35-.73v-.77h-10v.77Z"/><path class="b" d="M416.91,416.29a1.9,1.9,0,0,1-1.28.38H396.46v-7.54h11.38a2,2,0,0,1,1.31.4,2.86,2.86,0,0,1,.71,1.37h.73V402h-.73a3,3,0,0,1-.74,1.38,1.9,1.9,0,0,1-1.28.39H396.46V397h18.33a2,2,0,0,1,1.31.38,2.76,2.76,0,0,1,.72,1.39h.72v-9.14h-.72a2.77,2.77,0,0,1-.72,1.38,1.92,1.92,0,0,1-1.31.39H387.51v.77a2.83,2.83,0,0,1,1.34.75,1.89,1.89,0,0,1,.38,1.29v25.3a2,2,0,0,1-.39,1.33,2.61,2.61,0,0,1-1.33.72v.77h28.12a1.91,1.91,0,0,1,1.29.4,2.66,2.66,0,0,1,.71,1.37h.75v-9.14h-.75A2.76,2.76,0,0,1,416.91,416.29Z"/><path class="b" d="M449.55,405.54c-1.94-1.18-4.77-1.91-8.49-2.21L436.8,403a22.13,22.13,0,0,1-5.42-.89,2,2,0,0,1-1.4-1.93q0-2,2.91-3.12a13.52,13.52,0,0,1,4.64-.74,20.56,20.56,0,0,1,6.06.91,11.67,11.67,0,0,1,4.53,2.32,1.86,1.86,0,0,1,.57,1.44l.65.36,3.64-7.21-.65-.36a1.91,1.91,0,0,1-1.11.6,4.41,4.41,0,0,1-1.53-.52,37.67,37.67,0,0,0-6.41-2.47,22.66,22.66,0,0,0-5.78-.71,17.77,17.77,0,0,0-9.6,2.43,8.64,8.64,0,0,0-4.26,7.77,9,9,0,0,0,1,4.17,7.64,7.64,0,0,0,2.7,3,10.58,10.58,0,0,0,3.15,1.3,36,36,0,0,0,5.23.71l4.23.36a22.35,22.35,0,0,1,4.67.75,2.42,2.42,0,0,1,1.94,2.35c0,1.39-.93,2.41-2.8,3a15.71,15.71,0,0,1-5.13.78,25,25,0,0,1-6.55-.9,11.81,11.81,0,0,1-4.67-2.11,1.64,1.64,0,0,1-.53-1.22v-.22l-.68-.28-3.1,7.57.68.28a1.26,1.26,0,0,1,1-.67,1.87,1.87,0,0,1,.73.2,31,31,0,0,0,13.19,2.95q6.76,0,10.73-2.62a8.83,8.83,0,0,0,2.83-12.13A8.34,8.34,0,0,0,449.55,405.54Z"/><path class="c" d="M486.43,392.12c.89.2,1.33.68,1.33,1.44a7.68,7.68,0,0,1-1.3,3.09l-7.58,13.8-7.54-14a5.87,5.87,0,0,1-.91-2.76,1.57,1.57,0,0,1,1.27-1.57v-.78H458.94v.78a2.66,2.66,0,0,1,1.34.73,2,2,0,0,1,.38,1.31v25.3a2,2,0,0,1-.39,1.33,2.56,2.56,0,0,1-1.33.72v.77h10v-.77a2.9,2.9,0,0,1-1.35-.76,2,2,0,0,1-.38-1.32v-17.5l11,20.35,11.66-20.35v17.53a2,2,0,0,1-.39,1.33,2.6,2.6,0,0,1-1.34.72v.77h10.68v-.77a2.66,2.66,0,0,1-1.35-.75,2.05,2.05,0,0,1-.38-1.32V394.16a2,2,0,0,1,.38-1.31,2.59,2.59,0,0,1,1.35-.73v-.78H486.43v.78Z"/><path class="c" d="M537.84,418.41,526.4,396.23a5.14,5.14,0,0,1-.67-2.23,2,2,0,0,1,1.48-1.88v-.77H515.48v.77c1,.42,1.51,1,1.51,1.77a5.29,5.29,0,0,1-.62,2.26l-11,22.87a6.88,6.88,0,0,1-1.17,1.85,2.78,2.78,0,0,1-1.52.64v.77h11.09v-.77c-1.15-.24-1.72-.8-1.72-1.69a5,5,0,0,1,.56-1.9l1.57-3.37H528l1.67,3.16a4.89,4.89,0,0,1,.67,2.12c0,.92-.58,1.48-1.75,1.68v.77H541v-.77a3.25,3.25,0,0,1-1.65-.75A10.88,10.88,0,0,1,537.84,418.41Zm-21.63-8.2,4.71-9.95,4.94,9.95Z"/><path class="c" d="M574,417.14,562.78,404,573,395.63q2.71-2.42,3.41-2.88a4.23,4.23,0,0,1,1.71-.63v-.77H564.49v.77c1,.18,1.57.55,1.57,1.1s-.43,1.12-1.27,1.8l-11.37,9.28V394.16a2,2,0,0,1,.38-1.31,2.66,2.66,0,0,1,1.35-.73v-.77H544.47v.77a2.82,2.82,0,0,1,1.35.75,1.93,1.93,0,0,1,.38,1.29v25.3a2,2,0,0,1-.39,1.33,2.6,2.6,0,0,1-1.34.72v.77h10.68v-.77a2.82,2.82,0,0,1-1.35-.76,2,2,0,0,1-.38-1.31v-7.68l4.3-3.57L566,418.36c.72.84,1.14,1.34,1.26,1.52a1,1,0,0,1,.17.53c0,.49-.5.86-1.48,1.1v.77H579.2v-.77a5.16,5.16,0,0,1-2.14-1A31.22,31.22,0,0,1,574,417.14Z"/><path class="c" d="M613.06,416.29a1.9,1.9,0,0,1-1.28.38H592.6v-7.54H604a1.92,1.92,0,0,1,1.31.4,2.78,2.78,0,0,1,.72,1.37h.72V402H606a3,3,0,0,1-.74,1.38,1.91,1.91,0,0,1-1.29.39H592.61V397h18.33a2,2,0,0,1,1.31.38,2.76,2.76,0,0,1,.71,1.39h.73v-9.14H613a2.77,2.77,0,0,1-.71,1.38,1.93,1.93,0,0,1-1.31.39H583.65v.77a2.82,2.82,0,0,1,1.35.75,2,2,0,0,1,.38,1.29v25.3a2,2,0,0,1-.39,1.33,2.6,2.6,0,0,1-1.34.72v.77h28.13a1.93,1.93,0,0,1,1.29.4,2.59,2.59,0,0,1,.7,1.37h.76v-9.14h-.76A2.76,2.76,0,0,1,613.06,416.29Z"/><path class="c" d="M652.35,420.47a17.6,17.6,0,0,1-2.5-3.07l-5.71-8.16q4.47-.93,6.48-3.05a8.17,8.17,0,0,0,2-5.87c0-3.29-1.09-5.67-3.26-7.12a10,10,0,0,0-3.62-1.45,32.11,32.11,0,0,0-5.88-.4H620.08v.77a2.82,2.82,0,0,1,1.35.75,2,2,0,0,1,.38,1.29v25.3a2,2,0,0,1-.39,1.33,2.6,2.6,0,0,1-1.34.72v.77h10.68v-.77a2.82,2.82,0,0,1-1.35-.76,2,2,0,0,1-.38-1.31v-9.86h7.24l6,8.84a3.84,3.84,0,0,1,.86,1.85c0,.57-.46,1-1.4,1.24v.77h12.7v-.77A4.33,4.33,0,0,1,652.35,420.47ZM639.93,404H629v-7h10.89a8,8,0,0,1,4.17.78,3,3,0,0,1,1.17,2.73,2.93,2.93,0,0,1-1.67,3A9.19,9.19,0,0,1,639.93,404Z"/><path class="d" d="M215.82,348.68h0l-60.28,21c6.79,55.79,60.27,81.63,60.27,81.63h0s53.48-25.84,60.27-81.63Z"/><path class="e" d="M215.82,353h0l-55.21,19.24c6.22,51.09,55.2,74.76,55.2,74.76h0s49-23.67,55.2-74.76Z"/><g class="f"><path class="g" d="M215.82,356.34h0L160.5,375.62c6.23,51.19,55.31,74.9,55.31,74.9h0s49.08-23.71,55.31-74.9Z"/></g><g class="f"><path class="h" d="M255.33,393.59c-.83-.75-2.74.21-2.74.21s-2.11-1.37-3.81-.42a33.65,33.65,0,0,1-5.35,2.56,39.49,39.49,0,0,1-5,.59s-1.24,0-1.49-.33c-.63-.72-.33-3.81-.33-3.81,1.65,2.81,3.81,2.56,2.9,1.65a3.78,3.78,0,0,1-.75-3.06c.12-2.15.46-1,2-2.36s2-.51,2.76-.76.68,1.13,1.59,1.21.95-.55,1.61-1.55a3.11,3.11,0,0,0,.23-2.38c0-.49-.93-.58-1.51.21-.39.52-1.41.16-2.4.25a1.6,1.6,0,0,1-1.74-1.41c0-.67,1.15-.57,1.65-1.15s1.91-.09,2.49.07,1.12,1.45,1.69.95a5.31,5.31,0,0,0,1.37-1.94,25,25,0,0,1,1.2-2.36c.53-.88-.2-.54-1.28-1.2a8.46,8.46,0,0,0-2.68-1c-.83-.25-.63-.77-.72-1.68s-1.2-1-2.19-1.21-.7-.62,0-2-3.06-2.49-6.54-2.94-6.71.37-7.79,0,1.74,1.49.67,1.4a3.74,3.74,0,0,0-3.15,1.25c-1.7,1.65-3.65,1.7-4.6,4.1-.13.34,2.59-1.46,1.8,0a40,40,0,0,1-2.75,3.07c-1.16,1.33-1.82,3.31-1.24,2.65s3.14-1.57,2.4-1.16-1.37,2.49-3.19,3.65a11.71,11.71,0,0,0-2.57,2.69c0-.09,3.36-.79,2.36.12a13.24,13.24,0,0,1-5.1,2.76,17.92,17.92,0,0,1-5.5-.19c-1.65-.33-3.57-.29-5.79-.5-2.65-.25-3.52.34-4.68.42s-1.45,2-2.9,1.65c-2.69-.62-10.21-.07-11.64-4.55-2.2-6.88,6.79-6.3,9.6-4.56,4.14,2.57,10.14,4.26,15.25,1.66,2.19-1.12,5.88-6.21,0-7.41a16.76,16.76,0,0,0-3.11.2c-.66,0-.93-.29-1.53-.58-2.32-1.07-1.91-2.56-4.14-3-1-.19-2,.25-2.9,0-1.5-.39-.42,1-.42,1a21.31,21.31,0,0,1,2.57,1.49,2.62,2.62,0,0,1,.79,1.78,7.38,7.38,0,0,1-1.82-1.85,1.66,1.66,0,0,0-1.45-.76,9.84,9.84,0,0,0,.16,1.65,4.13,4.13,0,0,0,2.9,3.07c.91.33,3.66-.23,4.53-.58,6.44-2.61,8.32,1.26,3.17,3.89a7.92,7.92,0,0,1-4.47.58c-5.22-.54-8.71-4.79-14.41-5.46-2.82-.34-9.32.74-9.11,8.11a7.68,7.68,0,0,0,2.23,4.72,12.45,12.45,0,0,0,3.52,2.45,28,28,0,0,0,7.25,1.78c1.08,0,.38.08.59,1.1a35.08,35.08,0,0,1-1.46,5.81,4.25,4.25,0,0,1-2.61,2.45,31,31,0,0,0-6.29,2.31,6.91,6.91,0,0,1,1.78,2.82c.14.85.24,7.85.24,7.85l-1.69-.06,10.68,11h47.3l11-11.51a21.84,21.84,0,0,1-4.06,0c-.49-.25-.49-1-1.57-1.66s-2.65.09-3.73.5-1.74-.17-2.48-1.08-5.88-9.6-6.71-10.6-1.24-.58,0-.66,4.56,1.41,4.56,1.41l.24-.91c.25-.91,1.74-1.41,3.07-2.4s2.86-.83,4.35-2.08,2.52-.5,3.52-1.24c.57-.42.78-2.23,1-1.49s2.69,1.24,2.69,1.24a3.12,3.12,0,0,0,1.66-.82c.58-.67,1.08.66,1.08.66a13,13,0,0,1,1.49-1.41C256.49,396.11,256.15,394.33,255.33,393.59Zm-13-16.74s0,.13-.41.5-.62.41-1.16,0-.41-.62-1-.7Zm-47.7,40c-.79,0-.5-.16-.75-.54a2.15,2.15,0,0,0-3.48-.41,3.21,3.21,0,0,1-1.81.74c-.66,0-.18-.78-.09-1.44a8.57,8.57,0,0,0-.17-3.32,11.92,11.92,0,0,0-.62-1.49,19.14,19.14,0,0,0,6.38,0,4.81,4.81,0,0,0,2.23-1.57,12.46,12.46,0,0,1,1.41-1.37,1.85,1.85,0,0,1,.13,1.24,3,3,0,0,1-1.91,2.2c-.54.2,1.37,1.74,3,2.9s3.81,3.06,3.81,3.06Zm39.79,0H214c-.29,0-.21-.7-.79-1.32s-1.78-.58-2.9-.25-1.86.95-2.86.79-2.4-1.83-2.89-2.33-1.54-1.82-1.5-2.39.38-1.29,2.74-3.28a3.49,3.49,0,0,0,.87-4.68c-.25-.62-2.87-2.63-2.24-2.52a17.41,17.41,0,0,1,4.76,2.4c1.29.91,4.24,3.21,7,3.77,4.06.83,12.22-.08,12.22,0a2.18,2.18,0,0,1-.79,1.08c-.58.49-1.37.95-1.28,1.69s.7,1.2,2.31,2.3S234.41,416.82,234.41,416.82Z"/></g><g class="f"><rect class="i" x="146.64" y="347.19" width="69.17" height="109.77"/></g><g class="f"><path class="j" d="M247.59,419.15c-13.08,1.47-24,3.55-31.77,6.05a204.18,204.18,0,0,0-31-5.19,112.88,112.88,0,0,0,31,24.27h0A112.81,112.81,0,0,0,247.59,419.15Z"/></g><g class="f"><polygon class="h" points="217.13 431.36 215.81 427.7 214.5 431.36 210.53 431.36 213.79 433.47 212.56 437.04 215.81 434.85 219.07 437.04 217.84 433.47 221.09 431.36 217.13 431.36"/><polygon class="h" points="209.17 429.19 206.38 429.19 205.45 426.62 204.52 429.19 201.73 429.19 204.02 430.68 203.15 433.2 205.45 431.65 207.74 433.2 206.87 430.68 209.17 429.19"/><polygon class="h" points="201.06 425.87 199.21 425.87 198.6 424.16 197.98 425.87 196.13 425.87 197.65 426.86 197.08 428.52 198.6 427.5 200.12 428.52 199.54 426.86 201.06 425.87"/><polygon class="h" points="235.49 425.87 233.65 425.87 233.03 424.16 232.42 425.87 230.57 425.87 232.09 426.86 231.51 428.52 233.03 427.5 234.55 428.52 233.97 426.86 235.49 425.87"/><polygon class="h" points="229.9 429.19 227.11 429.19 226.18 426.62 225.25 429.19 222.46 429.19 224.76 430.68 223.89 433.2 226.18 431.65 228.47 433.2 227.61 430.68 229.9 429.19"/></g></svg>