<?xml version="1.0" encoding="utf-8"?>
<!-- Generator: Adobe Illustrator 23.0.6, SVG Export Plug-In . SVG Version: 6.00 Build 0)  -->
<svg version="1.1" id="Layer_1" xmlns="http://www.w3.org/2000/svg" xmlns:xlink="http://www.w3.org/1999/xlink" x="0px" y="0px"
	 viewBox="0 0 800 800" style="enable-background:new 0 0 800 800;" xml:space="preserve">
<style type="text/css">
	.st0{fill:#FFFFFF;}
	.st1{fill:#D43829;}
	.st2{fill:#FDB827;}
</style>
<title>logoLight</title>
<path class="st0" d="M570.1,400.8c-0.8,0-1.5-0.2-2.1-0.7c-0.6-0.7-0.9-1.6-0.8-2.5c-0.9,1.1-2,1.9-3.3,2.5
	c-1.3,0.5-2.7,0.8-4.1,0.7c-0.9,0-1.8-0.1-2.7-0.3c-0.8-0.2-1.5-0.5-2.2-1c-0.6-0.5-1.2-1.1-1.5-1.8c-0.7-1.8-0.7-3.8,0.1-5.6
	c0.4-0.7,0.9-1.4,1.6-1.8c0.7-0.5,1.5-0.8,2.3-1.1c0.8-0.2,1.7-0.5,2.6-0.6s1.8-0.3,2.7-0.4c0.8-0.1,1.5-0.2,2.2-0.4
	c0.6-0.1,1.1-0.4,1.5-0.8s0.6-0.9,0.6-1.5s-0.1-1.3-0.4-1.8c-0.3-0.4-0.6-0.8-1.1-1s-1-0.4-1.5-0.5s-1.1-0.1-1.6-0.1
	c-1.3,0-2.5,0.2-3.7,0.8c-1,0.7-1.6,1.9-1.6,3.1h-3.5c0-1.1,0.3-2.3,0.8-3.3c0.5-0.9,1.2-1.6,2-2.2s1.8-1,2.8-1.2
	c1.1-0.2,2.2-0.4,3.3-0.4c0.9,0,1.9,0.1,2.8,0.2c0.9,0.1,1.7,0.4,2.5,0.8c0.7,0.4,1.4,1,1.8,1.8c0.5,0.9,0.7,2,0.7,3v10.8
	c0,0.6,0,1.2,0.1,1.8c0.1,0.4,0.4,0.6,1,0.6c0.4,0,0.7-0.1,1-0.2v2.7C571.9,400.7,571,400.9,570.1,400.8z M565.3,390.3
	c-0.7,0.1-1.4,0.3-2.2,0.4s-1.5,0.2-2.3,0.3c-0.7,0.1-1.4,0.3-2.1,0.6c-0.6,0.2-1.1,0.6-1.5,1.1c-0.4,0.6-0.6,1.3-0.6,2
	c0,0.5,0.1,1,0.3,1.4s0.5,0.7,0.9,1s0.8,0.4,1.3,0.5s1,0.2,1.5,0.2c1,0,2-0.1,2.9-0.5c0.7-0.3,1.4-0.7,2-1.2c0.5-0.4,0.9-1,1.1-1.5
	c0.2-0.5,0.3-1,0.4-1.6v-3.5C566.5,389.9,565.9,390.2,565.3,390.3z"/>
<path class="st0" d="M591.5,406.3c-1.6,1.7-4,2.5-7.4,2.5c-1,0-2-0.1-3-0.3c-1-0.2-1.9-0.5-2.8-1c-0.8-0.5-1.5-1.1-2-1.9
	c-0.6-0.9-0.9-1.9-0.9-2.9h3.4c0,0.6,0.2,1.1,0.6,1.6c0.4,0.4,0.8,0.8,1.3,1.1c0.5,0.3,1.1,0.5,1.7,0.6c0.6,0.1,1.2,0.2,1.8,0.2
	c1,0,2-0.2,2.9-0.6c0.8-0.4,1.4-0.9,1.9-1.6s0.9-1.6,1.1-2.5c0.2-1,0.4-2.1,0.3-3.2v-1.4h-0.1c-0.5,1.2-1.5,2.2-2.7,2.9
	c-1.2,0.6-2.5,0.9-3.8,0.9c-1.4,0-2.8-0.3-4.1-0.9c-1.1-0.5-2.1-1.3-2.9-2.3c-0.8-1-1.4-2.1-1.8-3.4c-0.4-1.3-0.6-2.7-0.6-4.1
	c0-1.3,0.2-2.6,0.5-3.8c0.3-1.3,0.9-2.5,1.6-3.6c0.8-1.1,1.8-2,3-2.6c1.4-0.7,3-1.1,4.6-1c1.3,0,2.5,0.3,3.6,0.9s2,1.5,2.6,2.6l0,0
	v-3h3.2v19.1C593.8,402,593.1,404.6,591.5,406.3z M587.1,396.9c0.8-0.5,1.4-1.1,1.9-1.9s0.9-1.7,1.1-2.6c0.2-1,0.3-1.9,0.3-2.9
	c0-0.9-0.1-1.8-0.3-2.7c-0.2-0.9-0.5-1.7-1-2.4c-1-1.5-2.8-2.4-4.6-2.4c-1,0-2,0.2-2.8,0.6s-1.4,1-1.9,1.7s-0.9,1.6-1.1,2.4
	c-0.2,0.9-0.4,1.9-0.3,2.9c0,1,0.1,1.9,0.3,2.8s0.5,1.8,1,2.6c0.5,0.8,1.1,1.4,1.8,1.9c0.9,0.5,1.8,0.7,2.8,0.7
	C585.2,397.6,586.2,397.4,587.1,396.9z"/>
<path class="st0" d="M207.9,370.7c1.6,0.3,3.1,0.8,4.5,1.6c1.3,0.7,2.4,1.7,3.2,2.9c0.9,1.3,1.3,2.9,1.2,4.4h-10.3
	c0-0.5-0.1-1-0.4-1.4c-0.3-0.4-0.6-0.7-1-0.9c-0.4-0.2-0.8-0.4-1.3-0.4c-0.4-0.1-0.8-0.1-1.3-0.1h-1c-0.5,0-0.9,0.1-1.4,0.2
	c-0.4,0.1-0.8,0.3-1.2,0.6c-0.3,0.3-0.5,0.7-0.5,1.1c0,0.5,0.3,1,0.8,1.2c0.7,0.3,1.4,0.6,2.2,0.7c0.9,0.2,1.9,0.4,3.1,0.5
	s2.3,0.3,3.5,0.6c1.2,0.2,2.4,0.5,3.5,0.9s2.1,0.9,3.1,1.6c0.9,0.7,1.6,1.5,2.2,2.5c0.6,1.2,0.9,2.5,0.8,3.8c0.1,1.7-0.4,3.5-1.2,5
	c-0.8,1.3-2,2.5-3.3,3.2c-1.5,0.8-3.2,1.4-4.9,1.7c-1.9,0.3-3.8,0.5-5.8,0.5c-1.8,0-3.7-0.2-5.5-0.6c-1.7-0.3-3.4-1-4.9-1.8
	c-1.4-0.8-2.6-1.9-3.5-3.2c-0.9-1.4-1.4-3-1.3-4.7h10.3v0.3c0,0.6,0.2,1.2,0.6,1.7c0.3,0.4,0.8,0.8,1.3,1s1,0.4,1.6,0.5
	c0.5,0.1,1,0.1,1.5,0.1c0.4,0,0.8,0,1.4,0c0.5,0,1-0.1,1.5-0.3c0.4-0.1,0.9-0.3,1.2-0.6c0.3-0.3,0.5-0.8,0.5-1.2
	c0-0.6-0.3-1.1-0.8-1.3c-0.7-0.4-1.4-0.7-2.2-0.8c-0.9-0.2-1.9-0.4-3-0.5s-2.3-0.4-3.5-0.6c-1.2-0.3-2.4-0.6-3.5-1s-2.1-0.9-3-1.6
	s-1.6-1.5-2.1-2.5c-0.6-1.1-0.9-2.4-0.8-3.7c-0.1-1.7,0.4-3.4,1.2-4.8c0.8-1.3,1.9-2.3,3.3-3.1c1.5-0.8,3.1-1.4,4.7-1.6
	c1.8-0.3,3.7-0.5,5.6-0.5C204.5,370.2,206.2,370.4,207.9,370.7z"/>
<path class="st0" d="M247.5,371.2c1.5,0.6,2.9,1.6,3.9,2.9c1.1,1.4,2,3.1,2.4,4.8c0.6,2.2,0.9,4.5,0.8,6.8c0,2.3-0.2,4.5-0.8,6.7
	c-0.5,1.8-1.3,3.4-2.4,4.8c-1,1.3-2.4,2.3-3.9,2.9c-1.7,0.7-3.4,1-5.2,1c-1.6,0-3.1-0.3-4.6-0.8c-1.4-0.6-2.7-1.4-3.7-2.5v13.6
	h-11.1v-40.5H233l-0.1,4.2c1-1.6,2.4-2.8,4-3.7c1.7-0.8,3.5-1.2,5.4-1.2C244,370.2,245.8,370.5,247.5,371.2z M236.5,378.9
	c-0.6,0.3-1.1,0.8-1.5,1.4s-0.7,1.3-0.9,2c-0.2,0.8-0.3,1.6-0.3,2.4v1.8c0,0.8,0.1,1.6,0.3,2.5c0.2,0.7,0.5,1.4,0.9,2s0.9,1,1.5,1.4
	c0.7,0.4,1.5,0.5,2.2,0.5c0.8,0,1.5-0.1,2.2-0.4c0.6-0.3,1.1-0.7,1.5-1.2s0.7-1.2,0.8-1.8c0.2-0.8,0.3-1.6,0.3-2.4v-3
	c0-0.8-0.1-1.6-0.3-2.4c-0.1-0.6-0.4-1.3-0.8-1.8c-0.4-0.5-0.9-0.9-1.5-1.1c-0.7-0.3-1.5-0.4-2.2-0.4S237.2,378.6,236.5,378.9
	L236.5,378.9z"/>
<path class="st0" d="M282.1,371.2c1.9,0.6,3.7,1.5,5.2,2.9c1.5,1.3,2.6,3,3.4,4.8c1.6,4.4,1.6,9.2,0,13.5c-0.7,1.9-1.9,3.5-3.4,4.8
	s-3.3,2.3-5.2,2.9c-4.5,1.3-9.2,1.3-13.7,0c-1.9-0.6-3.7-1.5-5.2-2.9c-1.5-1.3-2.6-3-3.3-4.8c-1.6-4.4-1.6-9.2,0-13.5
	c0.7-1.8,1.9-3.5,3.3-4.8c1.5-1.3,3.3-2.3,5.2-2.9c2.2-0.7,4.5-1,6.8-1C277.6,370.2,279.9,370.5,282.1,371.2z M272.8,378.2
	c-0.7,0.3-1.2,0.7-1.7,1.3c-0.5,0.6-0.8,1.3-1,2c-0.2,0.9-0.3,1.7-0.3,2.6v3.2c0,0.9,0.1,1.8,0.3,2.6c0.2,0.7,0.5,1.4,1,2
	c0.5,0.5,1,1,1.7,1.2c0.8,0.3,1.7,0.5,2.5,0.4c1.6,0.1,3.2-0.5,4.2-1.7c0.9-1.3,1.4-2.9,1.3-4.6V384c0-0.9-0.1-1.8-0.3-2.6
	c-0.2-0.7-0.5-1.4-1-2c-0.5-0.5-1.1-1-1.7-1.3c-0.8-0.3-1.7-0.5-2.5-0.4C274.4,377.8,273.6,377.9,272.8,378.2L272.8,378.2z"/>
<path class="st0" d="M316.6,370.3c0.4,0.1,0.7,0.2,1,0.2c0.3,0.1,0.6,0.2,0.9,0.3v9.3h-3.6c-1,0-2.1,0.1-3,0.5
	c-0.8,0.3-1.5,0.8-2,1.4c-0.5,0.7-0.9,1.4-1.1,2.2c-0.2,1-0.4,2-0.3,3v13.1h-11.1v-29.5h9.8v4.5c0.3-0.8,0.8-1.6,1.4-2.3
	c0.5-0.6,1.2-1.2,1.9-1.6c0.7-0.4,1.5-0.8,2.3-1s1.7-0.3,2.5-0.3C315.7,370.1,316.1,370.2,316.6,370.3z"/>
<path class="st0" d="M338.2,370.9h6.3v7.5h-6.3v11.2c0,0.6,0,1.1,0.1,1.7c0.1,0.4,0.2,0.8,0.5,1.2c0.3,0.3,0.6,0.6,1,0.7
	c0.5,0.2,1,0.3,1.6,0.3h3.1v6.5c-0.5,0.1-1,0.3-1.6,0.4s-1.3,0.2-1.9,0.3s-1.3,0.2-1.9,0.2s-1.2,0.1-1.7,0.1c-1.4,0-2.8-0.1-4.1-0.4
	c-1.2-0.2-2.2-0.7-3.2-1.3c-0.9-0.6-1.6-1.4-2.1-2.4c-0.5-1.2-0.8-2.5-0.8-3.8v-14.8H323v-7.5h4.6l0.1-8.9h10.6v9H338.2z"/>
<path class="st0" d="M368.8,370.7c1.6,0.3,3.1,0.8,4.5,1.6c1.3,0.7,2.4,1.7,3.2,2.9c0.8,1.3,1.3,2.9,1.2,4.4h-10.3
	c0-0.5-0.1-1-0.4-1.4s-0.6-0.7-1-0.9c-0.4-0.2-0.8-0.4-1.3-0.4c-0.4-0.1-0.8-0.1-1.3-0.1h-1c-0.5,0-0.9,0.1-1.4,0.2
	c-0.4,0.1-0.8,0.3-1.2,0.6c-0.3,0.3-0.5,0.7-0.5,1.1c0,0.5,0.3,1,0.8,1.2c0.7,0.3,1.4,0.6,2.1,0.7c0.9,0.2,1.9,0.4,3.1,0.5
	s2.3,0.3,3.5,0.6c1.2,0.2,2.4,0.5,3.5,0.9s2.1,0.9,3,1.6s1.6,1.5,2.2,2.5c0.6,1.2,0.9,2.5,0.8,3.8c0.1,1.7-0.4,3.5-1.2,5
	c-0.8,1.3-2,2.5-3.3,3.2c-1.5,0.8-3.2,1.4-4.9,1.7c-1.9,0.3-3.8,0.5-5.8,0.5c-1.8,0-3.7-0.2-5.5-0.6c-1.7-0.3-3.4-1-4.9-1.8
	c-1.4-0.8-2.6-1.9-3.5-3.2c-0.9-1.4-1.4-3-1.3-4.7h10.3v0.3c0,0.6,0.2,1.2,0.5,1.7c0.3,0.4,0.8,0.8,1.3,1s1,0.4,1.6,0.5
	c0.5,0.1,1,0.1,1.5,0.1c0.4,0,0.8,0,1.4,0c0.5,0,1-0.1,1.5-0.3c0.4-0.1,0.9-0.3,1.2-0.6c0.3-0.3,0.5-0.8,0.5-1.2
	c0-0.6-0.3-1.1-0.8-1.3c-0.7-0.4-1.4-0.7-2.1-0.8c-0.9-0.2-1.9-0.4-3-0.5s-2.3-0.4-3.5-0.6c-1.2-0.3-2.4-0.6-3.5-1s-2.1-0.9-3.1-1.6
	c-0.9-0.7-1.6-1.5-2.1-2.5c-0.6-1.1-0.9-2.4-0.8-3.7c-0.1-1.7,0.4-3.4,1.2-4.8c0.8-1.3,1.9-2.3,3.3-3.1c1.5-0.8,3.1-1.4,4.7-1.6
	c1.8-0.3,3.7-0.5,5.6-0.5C365.4,370.2,367.1,370.4,368.8,370.7z"/>
<path class="st0" d="M394.9,373.6c1-1.1,2.3-2,3.7-2.6c1.5-0.6,3-0.9,4.6-0.8c1.8,0,3.6,0.3,5.2,1c1.5,0.6,2.9,1.6,3.9,2.9
	c1.1,1.4,2,3.1,2.4,4.8c0.6,2.2,0.9,4.5,0.8,6.7c0,2.3-0.2,4.6-0.8,6.8c-0.5,1.8-1.3,3.4-2.4,4.8c-1,1.3-2.4,2.3-3.9,2.9
	c-1.7,0.7-3.4,1-5.2,1c-1.9,0-3.7-0.4-5.4-1.2c-1.6-0.9-3-2.1-4-3.7v4.2h-10v-40.5h11.1L394.9,373.6L394.9,373.6z M397.5,378.9
	c-0.6,0.3-1.1,0.8-1.5,1.4s-0.7,1.3-0.9,2c-0.2,0.8-0.3,1.6-0.3,2.5v1.8c0,0.8,0.1,1.6,0.3,2.4c0.2,0.7,0.5,1.4,0.9,2s0.9,1,1.5,1.4
	c0.7,0.3,1.5,0.5,2.2,0.5c0.8,0,1.5-0.1,2.2-0.4c0.6-0.3,1.1-0.6,1.5-1.1s0.7-1.1,0.8-1.8c0.2-0.8,0.3-1.6,0.3-2.4v-3
	c0-0.8-0.1-1.6-0.3-2.4c-0.2-0.7-0.4-1.3-0.8-1.8s-0.9-0.9-1.5-1.2c-0.7-0.3-1.5-0.4-2.2-0.4S398.2,378.6,397.5,378.9z"/>
<path class="st0" d="M443.1,371.2c1.9,0.6,3.7,1.5,5.3,2.9c1.5,1.3,2.6,3,3.4,4.8c1.6,4.4,1.6,9.2,0,13.5c-0.7,1.8-1.9,3.5-3.4,4.8
	s-3.3,2.3-5.3,2.9c-2.2,0.7-4.5,1-6.9,1c-2.3,0-4.6-0.3-6.8-1c-1.9-0.6-3.7-1.5-5.2-2.9c-1.5-1.3-2.6-3-3.3-4.8
	c-1.6-4.4-1.6-9.2,0-13.5c0.7-1.8,1.9-3.5,3.3-4.8c1.5-1.3,3.3-2.3,5.2-2.9c2.2-0.7,4.5-1,6.8-1S440.9,370.5,443.1,371.2z
	 M433.7,378.2c-0.7,0.3-1.2,0.7-1.7,1.3c-0.5,0.6-0.8,1.3-1,2c-0.2,0.9-0.3,1.7-0.3,2.6v3.2c0,0.9,0.1,1.8,0.3,2.6
	c0.2,0.7,0.5,1.4,1,2c0.4,0.5,1,1,1.7,1.2c0.8,0.3,1.7,0.5,2.5,0.4c1.6,0.1,3.2-0.5,4.2-1.7c0.9-1.3,1.4-2.9,1.3-4.6V384
	c0-0.9-0.1-1.8-0.3-2.6c-0.2-0.7-0.5-1.4-1-2c-0.5-0.5-1.1-1-1.7-1.3c-0.8-0.3-1.6-0.5-2.5-0.4C435.4,377.8,434.5,377.9,433.7,378.2
	L433.7,378.2z"/>
<path class="st0" d="M480.3,371.2c1.9,0.6,3.7,1.5,5.3,2.9c1.5,1.3,2.6,3,3.4,4.8c1.6,4.4,1.6,9.2,0,13.5c-0.7,1.8-1.9,3.5-3.4,4.8
	s-3.3,2.3-5.3,2.9c-4.5,1.3-9.2,1.3-13.7,0c-1.9-0.6-3.7-1.5-5.2-2.9c-1.5-1.3-2.6-3-3.3-4.8c-1.6-4.4-1.6-9.2,0-13.5
	c0.7-1.8,1.9-3.5,3.3-4.8c1.5-1.3,3.3-2.3,5.2-2.9c2.2-0.7,4.5-1,6.8-1C475.8,370.2,478.1,370.5,480.3,371.2z M471,378.2
	c-0.7,0.3-1.2,0.7-1.7,1.3c-0.5,0.6-0.8,1.3-1,2c-0.2,0.9-0.3,1.7-0.3,2.6v3.2c0,0.9,0.1,1.8,0.3,2.6c0.2,0.7,0.5,1.4,1,2
	c0.5,0.5,1,1,1.7,1.2c0.8,0.3,1.7,0.5,2.5,0.4c1.6,0.1,3.2-0.5,4.2-1.7c0.9-1.3,1.4-3,1.3-4.6V384c0-0.9-0.1-1.8-0.3-2.6
	c-0.2-0.7-0.5-1.4-1-2c-0.5-0.5-1.1-1-1.7-1.3c-0.8-0.3-1.7-0.5-2.5-0.4C472.6,377.8,471.8,377.9,471,378.2L471,378.2z"/>
<path class="st0" d="M506.6,382.2l9.4-11.3h13l-10.9,11.9l11.2,17.6h-12.6l-6.2-10.1l-3.9,3.7v6.4h-11.1v-40.5h11.1V382.2
	L506.6,382.2z"/>
<path class="st1" d="M533.2,393.2c0-4.3,3.5-7.8,7.8-7.8s7.8,3.5,7.8,7.8s-3.5,7.8-7.8,7.8C536.7,401.1,533.2,397.6,533.2,393.2
	L533.2,393.2"/>
<path class="st0" d="M597.8,374.9c0.8-1.9,2.3-3.3,4.2-4.1c1.9-0.8,4.1-0.8,6,0s3.4,2.2,4.2,4.1c0.4,1,0.6,2,0.6,3.1
	s-0.2,2.1-0.6,3.1c-0.4,0.9-1,1.8-1.7,2.5s-1.5,1.3-2.5,1.6c-2.9,1.2-6.3,0.6-8.5-1.6c-0.7-0.7-1.3-1.6-1.7-2.5
	c-0.4-1-0.6-2-0.6-3.1S597.4,375.9,597.8,374.9z M599.1,380.6c0.3,0.8,0.8,1.5,1.4,2.1c0.6,0.6,1.2,1.1,2,1.4s1.7,0.5,2.5,0.5
	c0.9,0,1.7-0.2,2.5-0.5s1.4-0.8,2-1.4s1.1-1.3,1.5-2.1c0.3-0.8,0.5-1.7,0.5-2.6s-0.2-1.8-0.5-2.6c-0.6-1.6-1.8-2.8-3.4-3.5
	c-0.8-0.3-1.7-0.5-2.5-0.5c-0.9,0-1.7,0.2-2.5,0.5c-0.7,0.3-1.4,0.8-2,1.4s-1,1.3-1.4,2.1c-0.3,0.8-0.5,1.7-0.5,2.6
	C598.7,378.9,598.8,379.7,599.1,380.6L599.1,380.6z M605.5,373.4c0.9-0.1,1.7,0.2,2.4,0.6c0.5,0.5,0.8,1.2,0.8,2
	c0.1,0.7-0.2,1.3-0.7,1.8c-0.5,0.4-1.1,0.6-1.7,0.7l2.6,4h-1.5l-2.5-3.9h-1.5v3.9H602v-9.1H605.5z M604.9,377.4c0.3,0,0.6,0,0.9,0
	c0.3,0,0.5-0.1,0.8-0.2c0.2-0.1,0.4-0.3,0.5-0.5c0.2-0.3,0.2-0.5,0.2-0.8s0-0.5-0.2-0.7c-0.1-0.2-0.3-0.3-0.5-0.4s-0.4-0.2-0.6-0.2
	c-0.2,0-0.5-0.1-0.7-0.1h-1.9v2.9L604.9,377.4z"/>
<path class="st2" d="M204.5,417.3c-2.7,0.4-4.6,2.7-4.7,5.4c0,3,2.4,5.4,5.4,5.4c0,0,178.9-22.9,384.6,0.5c1.8,0.1,3.3-1.3,3.4-3.1
	c0-0.1,0-0.2,0-0.3c-0.1-1.8-1.5-3.3-3.4-3.4C589.8,421.9,426.1,395.7,204.5,417.3z"/>
</svg>
