<svg xmlns="http://www.w3.org/2000/svg" viewBox="0 0 800 800"><defs><style>.a{fill:#fff;fill-rule:evenodd;}</style></defs><title>iconSilhouette</title><polygon class="a" points="358.16 595.22 287.31 498.12 370.6 387.16 352.12 357.84 422.41 377.54 433.34 486.7 417.8 462.05 358.16 595.22"/><polygon class="a" points="512.69 477.47 500.78 542.89 450.61 461.08 440.91 487.1 429.8 377.26 476.91 390.62 471.19 405.93 512.69 477.47"/><polygon class="a" points="353.04 204.78 304.79 225.24 369.93 331.47 353.27 349.62 423.14 368.36 414.09 283.37 404.61 293.7 353.04 204.78"/><polygon class="a" points="484 319.62 457.67 271.35 432.56 304.82 420.04 282.89 429.21 368.26 475.99 380.94 465.09 361.85 484 319.62"/></svg>