<svg xmlns="http://www.w3.org/2000/svg" viewBox="0 0 800 800"><defs><style>.a{fill:#fff;}</style></defs><title>logoSilhouette</title><path class="a" d="M229.93,383.38l-20.35-.1c2.06-9.61,4.59-16.52,11.76-21.89,5.51-4.12,14-5.94,25-5.94q15.09,0,22.47,3.57t10.4,9.07q3,5.51,3,20.19L282,414.61q0,11.24,1.08,16.57a47.75,47.75,0,0,0,4.06,11.44H264.85c-.59-1.49-1.31-3.72-2.17-6.66-.37-1.34-.64-2.22-.8-2.65a40.48,40.48,0,0,1-12.36,8.43,35.47,35.47,0,0,1-14.05,2.81q-13.15,0-20.75-7.14a23.75,23.75,0,0,1-7.58-18.06,24.26,24.26,0,0,1,3.45-12.89,22.56,22.56,0,0,1,9.67-8.67q6.23-3,17.94-5.25,15.81-3,21.92-5.54v-2.25q0-6.51-3.22-9.27t-12.12-2.77q-6,0-9.39,2.37T229.93,383.38Zm30.18,18.31q-4.33,1.44-13.72,3.45t-12.28,3.93a9.41,9.41,0,0,0-4.42,7.95,11.08,11.08,0,0,0,3.53,8.19,12.34,12.34,0,0,0,9,3.45,19.5,19.5,0,0,0,11.64-4,14.14,14.14,0,0,0,5.38-7.46c.59-1.93.88-5.59.88-11v-4.49Z"/><path class="a" d="M294.48,442.62V325H317V442.63H294.48Z"/><path class="a" d="M330.12,442.62V325h22.56V442.63H330.12Z"/><path class="a" d="M365.12,357.38h21V369.9a31.56,31.56,0,0,1,11.07-10.44,30.61,30.61,0,0,1,15.5-4q14.83,0,25.2,11.64t10.36,32.43q0,21.35-10.44,33.19t-25.29,11.84a28.8,28.8,0,0,1-12.8-2.81q-5.75-2.81-12.08-9.63v42.94H365.12V357.38Zm22.32,41.18q0,14.37,5.7,21.23T407,426.65a16.3,16.3,0,0,0,13.08-6.3q5.22-6.3,5.22-20.67,0-13.41-5.38-19.91a16.66,16.66,0,0,0-13.33-6.5,17.31,17.31,0,0,0-13.72,6.38Q387.44,386,387.44,398.56Z"/><path class="a" d="M477.75,442.62H455.19V357.38h20.95V369.5c3.59-5.73,5.44-8,8.3-9.85s7.68-2.73,11.32-2.73a94.06,94.06,0,0,1,9.88.39l-.75,18c-6.94-.12-7.22.38-10.49.38s-7.39.87-9.59,2.61-3.92,4.88-5.17,9.43-1.89,14.07-1.89,28.58v26.32Z"/><path class="a" d="M504.89,398.8A46.13,46.13,0,0,1,510.42,377,38.05,38.05,0,0,1,526.12,361a46.6,46.6,0,0,1,22.67-5.54q19.35,0,31.71,12.56t12.36,31.75q0,19.35-12.48,32.07T549,444.55a49.53,49.53,0,0,1-22.36-5.3,36.32,36.32,0,0,1-16.17-15.53Q504.88,413.49,504.89,398.8ZM528,400q0,12.69,6,19.43a19.69,19.69,0,0,0,29.66,0q6-6.75,6-19.59,0-12.52-6-19.26a19.67,19.67,0,0,0-29.66,0Q528,387.32,528,400Z"/></svg>
