<svg xmlns="http://www.w3.org/2000/svg" viewBox="0 0 800 800"><defs><style>.a{fill:#fff;}</style></defs><title>logoSilhouette</title><path class="a" d="M264.73,439.7A93.48,93.48,0,0,1,231.87,453h0l3.66,6.87a92.42,92.42,0,0,0,33.53-13.43c.62-.39,1.22-.79,1.83-1.2l-4.3-6.8c-.61.41-1.22.82-1.85,1.22"/><path class="a" d="M196.16,445.3s-1.39-1.59-.4,0l.09.14,2.24,3.53a24.28,24.28,0,0,0,12.75,9.64L205,451.32a24.74,24.74,0,0,1-8.87-6"/><path class="a" d="M298.7,379.7l.08.2c4.18,10.27.59,23.76-8.77,36.56l4,7.19c10.67-14.44,14.05-29.78,7.25-40.44l-2.23-3.51s-.93-1.53-.37,0"/><path class="a" d="M231.87,453c-10.21,1.83-19.58,1.28-26.84-1.72l5.81,7.33c6.88,2.45,15.41,2.86,24.68,1.26L231.86,453Z"/><path class="a" d="M266.75,386.73c-5.59-8.78-21.85-8.42-36.3.8s-21.63,23.79-16,32.57,21.84,8.42,36.3-.8S272.34,395.51,266.75,386.73Zm-18.69,22.54s-9.69,2.66-9.92-3.2c0,0-.45-.72-.73.78a12.12,12.12,0,0,0,.19,5.75v.53l-.12.24-4.82-.77-.08,0-4.82-.77.12-.24.52-.41a25.66,25.66,0,0,0,5.67-4.72c1.21-1.36.12-.86.12-.86-5.82,4.81-11.73.27-11.73.27-3.25-3.22,3.63-7.07,3.63-7.07a194.59,194.59,0,0,1,18.61-9.61s.26-.14.36,0c0,0,5.32,5.93,7.29,12C252.36,401.18,254.29,406.79,248.06,409.27Z"/><path class="a" d="M228.14,376.94l.89,1.67a103.62,103.62,0,0,0-18.43,15.92l-1.86-.84A68.35,68.35,0,0,0,196,413.33l2.18-.3C195,420.1,193.85,427,195,432.94l-.52.27a18.76,18.76,0,0,0,1.82,3.81c4.81,7.57,14.6,10.92,26.81,10.32h.39c10-.47,21.75-4,33-10.71,23.65-14,36.35-36.27,28.38-49.73-3.8-6.41-11.61-9.69-21.29-9.83,0,0-1.67,0-.37.31l.15.05c4.92,1,8.89,3.35,11.25,7.08,6.7,10.53-2,28-19.43,39.11s-37,11.5-43.67,1,2-28.06,19.44-39.12l1-.66.25-.18C272,358,323.09,346,336.1,341.91c13.72-4.31-.37-2.3-.37-2.3-50.72,8.22-83.63,22.27-103.86,34.77l-.22.14-.2.16"/><path class="a" d="M342.8,388.49c0,7.08-3.79,13.09-12.1,13.09H325v26.66h-7.24V363.8H330.7c7.9,0,12.1,5,12.1,12.92ZM335.55,378c0-5.11-1.73-6.92-6.25-6.92H325v23.21h4.28c3.95,0,6.25-1.73,6.25-7Z"/><path class="a" d="M354.07,428.24h-7.24V363.55l7.24-2.38Z"/><path class="a" d="M384.11,428.24h-4.77l-1.64-2.88c-1.24,2.14-3.63,4-7.82,4-5.35,0-10.95-3.79-10.95-13.17,0-14.74,12.84-18.77,17.94-24.28v-2.47c0-3.13-1.31-5.35-4.28-5.35-2.71,0-4.52,1-5.35,3.37l-6.09-3.95c2.14-3.37,4.86-6.25,11.52-6.25,6.84,0,11.44,4.52,11.44,12.18v38.76ZM377,401.33c-3.62,2.3-11,6.83-11,14.24,0,4.2,1.89,6.58,5.43,6.58,3.87,0,5.6-3.12,5.6-6.58Z"/><path class="a" d="M413.66,442.32h-7.32V426.68c-.74,1.24-2.39,2.72-6.58,2.72-5.52,0-11.2-3.21-11.2-12.18V378h7.25v38.93c0,3.53,2.3,5.26,5.35,5.26a4.89,4.89,0,0,0,5.18-5.26V378h7.33v64.36Z"/><path class="a" d="M443.46,416.89c0,7.9-5.35,12.51-12.27,12.51s-12.26-4.61-12.26-12.51V389.48c0-7.9,5.43-12.18,12.51-12.18,6.83,0,12.51,4.69,12.51,13.17,0,13.58-5.27,17.53-17.78,23.95v2.47c0,3.37,2,5.26,5,5.26,2.89,0,4.94-1.89,4.94-5.26v-.83l7.33-2.38Zm-12-32.76a5,5,0,0,0-5.27,5.35v16.95c8.73-4.11,10.54-7.9,10.54-15.55C436.71,385.86,434.32,384.13,431.44,384.13Z"/><path class="a" d="M465.76,378.7l-2.47,6.5a2.78,2.78,0,0,0-2.22-.66c-2.55,0-4.85,2.39-4.85,5.68v38H449V378h4.78l1.64,3.21a6.89,6.89,0,0,1,6.09-3.87A5.9,5.9,0,0,1,465.76,378.7Z"/><path class="a" d="M479.76,429.4c-7.41,0-12.6-5.11-12.6-12.51v-3.46l7.25,1.56v1.9a5,5,0,0,0,5.35,5.26c3.7,0,5.59-1.81,5.59-5.26a8.89,8.89,0,0,0-1.89-5.85c-3.46-3.87-8.07-6.42-11.6-10.61a16.28,16.28,0,0,1-4-10.87c0-7.24,5.11-12.26,12.35-12.26,7.57,0,11.77,4.93,11.77,12.18v3.46l-7.08-1.65v-1.81c0-3.29-2-5.35-4.94-5.35s-4.85,2.14-4.85,5.51c0,7.74,11.19,11.53,15.8,19.1a13.94,13.94,0,0,1,1.89,6.83C492.76,422.73,488.73,429.4,479.76,429.4Z"/><path class="a" d="M535.39,416.89a12.52,12.52,0,0,1-25,0V375.24c0-7.82,5.68-12.51,12.51-12.51,7,0,12.52,4.61,12.52,12.51Zm-7.25-41.65a5.27,5.27,0,1,0-10.53,0v41.65a5.27,5.27,0,0,0,10.53,0Z"/><path class="a" d="M566.58,428.24h-7.24V389.48c0-3.54-2.72-5.35-5.68-5.35s-5.68,1.81-5.68,5.35v38.76h-7.24V378h4.77l1.65,2.38c1.64-1.81,3.86-3,7.9-3,6.83,0,11.52,4.77,11.52,11.93v39Z"/><path class="a" d="M579.26,428.24H572V363.55l7.25-2.38Z"/><path class="a" d="M609.05,442.32h-7.32V426.68c-.74,1.24-2.39,2.72-6.59,2.72-5.51,0-11.19-3.21-11.19-12.18V378h7.24v38.93c0,3.53,2.31,5.26,5.35,5.26a4.89,4.89,0,0,0,5.19-5.26V378h7.32v64.36Z"/></svg>