
<svg xmlns="http://www.w3.org/2000/svg" viewBox="0 0 800 800"><defs><style>.a{fill:#bdd4d8;}.b{fill:#240d0d;}.c{opacity:0.71;}.d{fill:#c9e2ea;}.e{fill:#231f20;}.f{fill:#971e1f;}.g{fill:#d3ebfa;}.h{fill:#fff;}.i{fill:#ba2025;}</style></defs><title>logoColor</title><path class="a" d="M266.25,387.23c5.6,8.78-1.59,23.36-16,32.57s-30.71,9.56-36.3.8,1.58-23.37,16-32.57,30.7-9.58,36.3-.8"/><path class="b" d="M264.23,440.2a93.48,93.48,0,0,1-32.86,13.34h0l3.66,6.87A92.42,92.42,0,0,0,268.55,447c.62-.39,1.22-.79,1.83-1.2l-4.3-6.8c-.61.41-1.22.82-1.85,1.22"/><path class="b" d="M195.66,445.8s-1.39-1.59-.4,0l.09.14,2.24,3.53a24.27,24.27,0,0,0,12.76,9.64l-5.82-7.33a24.74,24.74,0,0,1-8.87-6"/><path class="b" d="M298.2,380.2l.08.2c4.18,10.27.59,23.76-8.77,36.56l4,7.18c10.67-14.43,14.05-29.77,7.25-40.43l-2.23-3.51s-.93-1.53-.37,0"/><path class="b" d="M231.37,453.54c-10.21,1.83-19.58,1.28-26.84-1.72l5.81,7.33c6.88,2.44,15.41,2.85,24.68,1.26l-3.66-6.87Z"/><path class="b" d="M266.08,439l4.3,6.8a93.65,93.65,0,0,0,23.17-21.63l-4-7.18a93.16,93.16,0,0,1-23.43,22"/><g class="c"><path class="d" d="M293.55,424.15l-4-7.18,0,0-5.19-.84a85.4,85.4,0,0,1-21,20l2.78,2.87v0h0l4.29,6.8a93.47,93.47,0,0,0,23.17-21.63"/></g><path class="e" d="M232.17,413.1l4.82.77.12-.24v-.53a12.25,12.25,0,0,1-.19-5.75c.28-1.5.73-.78.73-.78.23,5.86,9.92,3.2,9.92,3.2,6.23-2.48,4.3-8.09,4.3-8.09-2-6.07-7.29-12-7.29-12-.1-.16-.36,0-.36,0a193.7,193.7,0,0,0-18.6,9.61s-6.88,3.85-3.64,7.06c0,0,5.92,4.55,11.73-.26,0,0,1.09-.51-.12.86a25.41,25.41,0,0,1-5.67,4.71l-.51.42-.13.23,4.82.78Z"/><path class="f" d="M231.37,374.88c20.23-12.5,53.14-26.55,103.86-34.77,0,0,14.09-2,.36,2.3-13,4.09-64.07,16.07-103.86,42.7l-.24.18-1.05.66C213,397,204.31,414.52,211,425.06s26.24,10.11,43.66-.95,26.14-28.58,19.44-39.11c-2.36-3.73-6.33-6.08-11.25-7.08l-.15-.05c-1.3-.29.36-.31.36-.31,9.69.14,17.5,3.42,21.3,9.83,8,13.46-4.73,35.73-28.38,49.72-11.26,6.68-23,10.25-33,10.72h-.39c-12.22.6-22-2.75-26.81-10.32-10-15.76,5.74-43.67,35.16-62.34l.21-.16Z"/><g class="c"><path class="g" d="M197.67,413.53l-3.34.46c-3.34,7.5-4.61,14.85-3.47,21.33l3.62-1.88c-1.13-6,.05-12.84,3.19-19.91"/><path class="g" d="M228.53,379.11l-.89-1.67A105.14,105.14,0,0,0,207.86,394l2.24,1a103.62,103.62,0,0,1,18.43-15.92"/></g><path class="h" d="M342.3,389c0,7.08-3.79,13.09-12.1,13.09h-5.68v26.66h-7.24V364.3H330.2c7.9,0,12.1,5,12.1,12.92Zm-7.25-10.53c0-5.11-1.73-6.92-6.25-6.92h-4.28v23.21h4.28c3.95,0,6.25-1.73,6.25-7Z"/><path class="h" d="M353.57,428.74h-7.24V364.05l7.24-2.38Z"/><path class="h" d="M383.61,428.74h-4.77l-1.64-2.88c-1.23,2.14-3.62,4-7.82,4-5.35,0-10.95-3.78-10.95-13.16,0-14.74,12.84-18.77,17.95-24.28V390c0-3.13-1.32-5.35-4.28-5.35-2.72,0-4.53,1-5.36,3.37l-6.09-3.95c2.15-3.37,4.86-6.26,11.53-6.26,6.83,0,11.43,4.53,11.43,12.19v38.76Zm-7.07-26.91c-3.62,2.3-11,6.83-11,14.24,0,4.19,1.89,6.58,5.43,6.58,3.87,0,5.6-3.13,5.6-6.58V401.83Z"/><path class="h" d="M413.16,442.82h-7.32V427.18c-.74,1.23-2.39,2.72-6.58,2.72-5.52,0-11.2-3.21-11.2-12.18V378.46h7.25v38.93c0,3.53,2.3,5.26,5.35,5.26a4.89,4.89,0,0,0,5.18-5.26V378.46h7.33v64.36Z"/><path class="h" d="M443,417.39c0,7.9-5.35,12.51-12.27,12.51s-12.26-4.61-12.26-12.51V390c0-7.9,5.43-12.18,12.51-12.18,6.83,0,12.51,4.69,12.51,13.17,0,13.58-5.27,17.53-17.77,23.95v2.47c0,3.37,2,5.26,5,5.26,2.88,0,4.94-1.89,4.94-5.26v-.83l7.32-2.38Zm-12-32.76a5,5,0,0,0-5.27,5.35v16.95c8.73-4.11,10.54-7.89,10.54-15.55C436.21,386.36,433.82,384.63,430.94,384.63Z"/><path class="h" d="M465.26,379.2l-2.47,6.5a2.78,2.78,0,0,0-2.22-.66c-2.55,0-4.86,2.39-4.86,5.68v38h-7.24V378.46h4.77l1.65,3.21A6.87,6.87,0,0,1,461,377.8,5.9,5.9,0,0,1,465.26,379.2Z"/><path class="h" d="M479.26,429.9c-7.41,0-12.6-5.11-12.6-12.51v-3.46l7.25,1.56v1.9a5,5,0,0,0,5.35,5.26c3.7,0,5.6-1.81,5.6-5.26a8.84,8.84,0,0,0-1.9-5.85c-3.45-3.87-8.06-6.42-11.6-10.61a16.28,16.28,0,0,1-4-10.87c0-7.24,5.11-12.26,12.35-12.26,7.57,0,11.77,4.93,11.77,12.18v3.46l-7.08-1.65V390c0-3.29-2-5.35-4.93-5.35s-4.86,2.14-4.86,5.51c0,7.74,11.19,11.52,15.8,19.1a13.85,13.85,0,0,1,1.9,6.83C492.26,423.23,488.23,429.9,479.26,429.9Z"/><path class="i" d="M534.89,417.39a12.52,12.52,0,0,1-25,0V375.74c0-7.82,5.68-12.51,12.51-12.51,7,0,12.52,4.61,12.52,12.51Zm-7.25-41.65a5.27,5.27,0,0,0-10.54,0v41.65a5.27,5.27,0,0,0,10.54,0Z"/><path class="i" d="M566.08,428.74h-7.24V390c0-3.54-2.72-5.35-5.68-5.35s-5.68,1.81-5.68,5.35v38.76h-7.24V378.46H545l1.65,2.38c1.64-1.81,3.86-3,7.9-3,6.83,0,11.52,4.77,11.52,11.93v39Z"/><path class="i" d="M578.76,428.74h-7.24V364.05l7.24-2.38Z"/><path class="i" d="M608.55,442.82h-7.32V427.18c-.74,1.23-2.39,2.72-6.59,2.72-5.51,0-11.19-3.21-11.19-12.18V378.46h7.24v38.93c0,3.53,2.31,5.26,5.35,5.26a4.89,4.89,0,0,0,5.19-5.26V378.46h7.32v64.36Z"/></svg>