<svg xmlns="http://www.w3.org/2000/svg" viewBox="0 0 800 800"><defs><style>.a{fill:#fff;}</style></defs><title>logoSilhouette</title><path class="a" d="M570.14,390.82a3,3,0,0,1-2.13-.74,3.25,3.25,0,0,1-.79-2.45,8.21,8.21,0,0,1-3.3,2.45,11.05,11.05,0,0,1-4.06.74,11.37,11.37,0,0,1-2.67-.3,6,6,0,0,1-2.21-1,5,5,0,0,1-1.5-1.82,7.14,7.14,0,0,1,.07-5.61,5.26,5.26,0,0,1,1.59-1.84,7.31,7.31,0,0,1,2.27-1.07c.85-.24,1.72-.45,2.61-.61s1.84-.33,2.69-.42a14.8,14.8,0,0,0,2.24-.41,3.66,3.66,0,0,0,1.54-.77,1.86,1.86,0,0,0,.57-1.48,3.38,3.38,0,0,0-.43-1.82,3,3,0,0,0-1.09-1.05,4.57,4.57,0,0,0-1.49-.48,11.55,11.55,0,0,0-1.64-.13,7.33,7.33,0,0,0-3.65.83,3.54,3.54,0,0,0-1.57,3.14h-3.45a7.62,7.62,0,0,1,.81-3.28,6.06,6.06,0,0,1,2-2.16,8.17,8.17,0,0,1,2.79-1.2,14.88,14.88,0,0,1,3.32-.36,18.88,18.88,0,0,1,2.81.21A7.24,7.24,0,0,1,568,370a5,5,0,0,1,1.82,1.76,5.64,5.64,0,0,1,.69,3v10.76a8.36,8.36,0,0,0,.14,1.78c.1.38.41.57.95.57a3.49,3.49,0,0,0,1.05-.2v2.67A4.84,4.84,0,0,1,570.14,390.82Zm-4.82-10.54c-.7.15-1.44.27-2.21.37s-1.54.2-2.32.32a8.43,8.43,0,0,0-2.11.59,3.8,3.8,0,0,0-1.52,1.15,3.23,3.23,0,0,0-.58,2,2.79,2.79,0,0,0,.34,1.44,2.9,2.9,0,0,0,.89.95,3.69,3.69,0,0,0,1.3.52,7,7,0,0,0,1.52.17,8.14,8.14,0,0,0,2.91-.47,6.11,6.11,0,0,0,2-1.17,4.67,4.67,0,0,0,1.14-1.54,3.91,3.91,0,0,0,.36-1.56v-3.52A4.22,4.22,0,0,1,565.32,380.28Z"/><path class="a" d="M591.51,396.29c-1.57,1.7-4,2.54-7.37,2.54a13.84,13.84,0,0,1-3-.32,8.79,8.79,0,0,1-2.76-1.05,6.29,6.29,0,0,1-2-1.9,5.46,5.46,0,0,1-.9-2.88h3.44a2.57,2.57,0,0,0,.59,1.58,4.37,4.37,0,0,0,1.34,1.06,6.34,6.34,0,0,0,1.72.58,8.63,8.63,0,0,0,1.78.19,6.38,6.38,0,0,0,2.87-.59,5.37,5.37,0,0,0,1.94-1.62,6.45,6.45,0,0,0,1.11-2.49,13.27,13.27,0,0,0,.35-3.19v-1.38h-.08a5.79,5.79,0,0,1-2.69,2.85,8.33,8.33,0,0,1-3.82.91,9.16,9.16,0,0,1-4.09-.85,8.65,8.65,0,0,1-2.92-2.28,9.61,9.61,0,0,1-1.75-3.36,13.63,13.63,0,0,1-.59-4.07,16.05,16.05,0,0,1,.48-3.82,10.34,10.34,0,0,1,1.62-3.57,8.86,8.86,0,0,1,3-2.62,9.23,9.23,0,0,1,4.58-1,7.73,7.73,0,0,1,3.64.87,6.1,6.1,0,0,1,2.59,2.61h0v-3h3.24V388.6C593.85,392,593.07,394.59,591.51,396.29Zm-4.4-9.41A5.7,5.7,0,0,0,589,385a8.45,8.45,0,0,0,1.08-2.61,12.65,12.65,0,0,0,.34-2.92,11.81,11.81,0,0,0-.32-2.71,7.56,7.56,0,0,0-1-2.41A5.2,5.2,0,0,0,584.5,372a5.89,5.89,0,0,0-2.83.63,5.48,5.48,0,0,0-1.92,1.68,6.9,6.9,0,0,0-1.09,2.43,11.34,11.34,0,0,0-.35,2.87,14.39,14.39,0,0,0,.28,2.84,8.1,8.1,0,0,0,1,2.57,5.52,5.52,0,0,0,1.83,1.86,5.23,5.23,0,0,0,2.83.71A5.58,5.58,0,0,0,587.11,386.88Z"/><path class="a" d="M207.86,360.73a15.4,15.4,0,0,1,4.52,1.62,9.37,9.37,0,0,1,3.22,2.93,7.72,7.72,0,0,1,1.23,4.43H206.49a2.45,2.45,0,0,0-.43-1.43,3.07,3.07,0,0,0-1-.87,3.88,3.88,0,0,0-1.27-.42,8.25,8.25,0,0,0-1.25-.11l-1,0a6.31,6.31,0,0,0-1.35.21,3.21,3.21,0,0,0-1.16.56,1.3,1.3,0,0,0-.49,1.09,1.38,1.38,0,0,0,.82,1.24,7.78,7.78,0,0,0,2.16.72c.89.19,1.91.35,3.05.49s2.31.33,3.5.56a26.68,26.68,0,0,1,3.51.93,10.9,10.9,0,0,1,3.05,1.59,7.82,7.82,0,0,1,2.16,2.54,8,8,0,0,1,.81,3.79,9.44,9.44,0,0,1-1.24,5,9.06,9.06,0,0,1-3.34,3.22,15.06,15.06,0,0,1-4.87,1.69,32.77,32.77,0,0,1-5.79.49,26.58,26.58,0,0,1-5.49-.57,16.44,16.44,0,0,1-4.87-1.82,10.38,10.38,0,0,1-3.49-3.18,8.14,8.14,0,0,1-1.34-4.71h10.31V381a2.8,2.8,0,0,0,.56,1.73,3.68,3.68,0,0,0,1.28,1,5.82,5.82,0,0,0,1.58.5,9.37,9.37,0,0,0,1.46.14c.38,0,.84,0,1.38-.05a9.09,9.09,0,0,0,1.52-.26,3.59,3.59,0,0,0,1.23-.64,1.55,1.55,0,0,0,.5-1.23,1.48,1.48,0,0,0-.81-1.31,7.64,7.64,0,0,0-2.16-.81c-.89-.21-1.91-.39-3-.55s-2.31-.38-3.5-.63a32.54,32.54,0,0,1-3.51-1,11.15,11.15,0,0,1-3-1.58,7.66,7.66,0,0,1-2.15-2.48,7.46,7.46,0,0,1-.82-3.67,8.89,8.89,0,0,1,1.22-4.84,9,9,0,0,1,3.28-3.06,14.55,14.55,0,0,1,4.71-1.62,31.61,31.61,0,0,1,5.59-.48A26.09,26.09,0,0,1,207.86,360.73Z"/><path class="a" d="M247.47,361.18a9.86,9.86,0,0,1,3.91,2.87,13.32,13.32,0,0,1,2.45,4.83,24.6,24.6,0,0,1,.84,6.8,24.25,24.25,0,0,1-.84,6.74,13.31,13.31,0,0,1-2.45,4.81,9.86,9.86,0,0,1-3.91,2.87,13.54,13.54,0,0,1-5.23,1,12.36,12.36,0,0,1-4.61-.82,10.13,10.13,0,0,1-3.68-2.53v13.65H222.86V360.9h10.06l-.06,4.18a10.3,10.3,0,0,1,4-3.67,11.85,11.85,0,0,1,5.37-1.19A13.73,13.73,0,0,1,247.47,361.18Zm-10.93,7.74a4.32,4.32,0,0,0-1.53,1.35,6.23,6.23,0,0,0-.89,2,10,10,0,0,0-.28,2.44v1.83a10.1,10.1,0,0,0,.28,2.45,6.34,6.34,0,0,0,.89,2,4.31,4.31,0,0,0,1.53,1.35,4.46,4.46,0,0,0,2.23.51,5.48,5.48,0,0,0,2.23-.41,3.65,3.65,0,0,0,1.48-1.17,4.94,4.94,0,0,0,.83-1.81,9.53,9.53,0,0,0,.26-2.36v-3a9.53,9.53,0,0,0-.26-2.36,4.65,4.65,0,0,0-.83-1.78,3.87,3.87,0,0,0-1.48-1.15,5.48,5.48,0,0,0-2.23-.41A4.8,4.8,0,0,0,236.54,368.92Z"/><path class="a" d="M282.13,361.18a13.94,13.94,0,0,1,5.24,2.87,12.81,12.81,0,0,1,3.36,4.81,20,20,0,0,1,0,13.54,12.73,12.73,0,0,1-3.36,4.83,13.94,13.94,0,0,1-5.24,2.87,24.85,24.85,0,0,1-13.68,0,14,14,0,0,1-5.23-2.87,12.58,12.58,0,0,1-3.34-4.83,20.17,20.17,0,0,1,0-13.54,12.73,12.73,0,0,1,3.34-4.81,14,14,0,0,1,5.23-2.87,22.82,22.82,0,0,1,6.83-1A23.33,23.33,0,0,1,282.13,361.18Zm-9.36,7a4.28,4.28,0,0,0-1.69,1.25,5.54,5.54,0,0,0-1,2,10.1,10.1,0,0,0-.32,2.64v3.18a10,10,0,0,0,.32,2.63,5.33,5.33,0,0,0,1,2,4.21,4.21,0,0,0,1.69,1.22,6.49,6.49,0,0,0,2.51.43,5.05,5.05,0,0,0,4.23-1.67,7.21,7.21,0,0,0,1.31-4.58v-3.18a10.1,10.1,0,0,0-.32-2.64,5.13,5.13,0,0,0-1-2,4.45,4.45,0,0,0-1.72-1.25,6.49,6.49,0,0,0-2.51-.43A6.31,6.31,0,0,0,272.77,368.21Z"/><path class="a" d="M316.59,360.28c.4.07.74.16,1,.24a5.59,5.59,0,0,1,.88.33v9.32h-3.58a8.83,8.83,0,0,0-3.05.48,4.94,4.94,0,0,0-2,1.39,5.57,5.57,0,0,0-1.12,2.24,12.3,12.3,0,0,0-.34,3v13.11H297.29V360.9h9.8v4.45a7.92,7.92,0,0,1,1.37-2.29,8,8,0,0,1,1.89-1.62,8.17,8.17,0,0,1,2.29-1,10.85,10.85,0,0,1,2.55-.31A7.25,7.25,0,0,1,316.59,360.28Z"/><path class="a" d="M338.24,360.9h6.27v7.53h-6.27v11.23a9.13,9.13,0,0,0,.13,1.67,3,3,0,0,0,.49,1.19,2.15,2.15,0,0,0,1,.74,4.2,4.2,0,0,0,1.56.25h3.13v6.54c-.48.14-1,.28-1.63.41s-1.26.23-1.91.33-1.3.16-1.93.2-1.18.07-1.67.07a21.24,21.24,0,0,1-4.15-.38,8.94,8.94,0,0,1-3.23-1.3,6.2,6.2,0,0,1-2.1-2.43,8.41,8.41,0,0,1-.75-3.77V368.43H323V360.9h4.58l.09-8.94h10.57v8.94Z"/><path class="a" d="M368.8,360.73a15.57,15.57,0,0,1,4.53,1.62,9.55,9.55,0,0,1,3.22,2.93,7.79,7.79,0,0,1,1.22,4.43H367.44a2.45,2.45,0,0,0-.44-1.43,2.88,2.88,0,0,0-1-.87,3.9,3.9,0,0,0-1.26-.42,8.48,8.48,0,0,0-1.26-.11l-1,0a6.13,6.13,0,0,0-1.35.21,3.13,3.13,0,0,0-1.16.56,1.28,1.28,0,0,0-.49,1.09,1.36,1.36,0,0,0,.82,1.24,7.59,7.59,0,0,0,2.15.72c.89.19,1.91.35,3.06.49s2.3.33,3.5.56a26.13,26.13,0,0,1,3.5.93,10.9,10.9,0,0,1,3,1.59,7.82,7.82,0,0,1,2.16,2.54,8,8,0,0,1,.81,3.79,9.44,9.44,0,0,1-1.24,5,9.13,9.13,0,0,1-3.34,3.22,15,15,0,0,1-4.87,1.69,32.77,32.77,0,0,1-5.79.49,26.65,26.65,0,0,1-5.49-.57,16.34,16.34,0,0,1-4.87-1.82,10.38,10.38,0,0,1-3.49-3.18,8.13,8.13,0,0,1-1.33-4.71h10.31V381a2.79,2.79,0,0,0,.55,1.73,3.68,3.68,0,0,0,1.28,1,5.78,5.78,0,0,0,1.59.5,9.14,9.14,0,0,0,1.45.14c.39,0,.84,0,1.38-.05a8.75,8.75,0,0,0,1.52-.26,3.5,3.5,0,0,0,1.23-.64,1.56,1.56,0,0,0,.51-1.23,1.47,1.47,0,0,0-.82-1.31,7.45,7.45,0,0,0-2.15-.81c-.89-.21-1.91-.39-3.05-.55s-2.32-.38-3.51-.63a31.74,31.74,0,0,1-3.5-1,11.07,11.07,0,0,1-3.06-1.58,7.66,7.66,0,0,1-2.15-2.48,7.46,7.46,0,0,1-.82-3.67,8.8,8.8,0,0,1,1.23-4.84,9.07,9.07,0,0,1,3.27-3.06,14.61,14.61,0,0,1,4.72-1.62,31.53,31.53,0,0,1,5.59-.48A26.06,26.06,0,0,1,368.8,360.73Z"/><path class="a" d="M394.89,363.63a10.47,10.47,0,0,1,3.68-2.56,12.21,12.21,0,0,1,4.61-.84,13.54,13.54,0,0,1,5.23.95,10.06,10.06,0,0,1,3.92,2.86,13.4,13.4,0,0,1,2.44,4.8,24.22,24.22,0,0,1,.84,6.73,24.67,24.67,0,0,1-.84,6.81,13.6,13.6,0,0,1-2.44,4.84,9.94,9.94,0,0,1-3.92,2.89,13.73,13.73,0,0,1-5.23.95,11.72,11.72,0,0,1-5.37-1.2,10.4,10.4,0,0,1-4-3.68l0,4.2h-10V349.89h11.1v13.74Zm2.59,5.3A4.54,4.54,0,0,0,396,370.3a5.79,5.79,0,0,0-.89,2,10.12,10.12,0,0,0-.29,2.46v1.82a10,10,0,0,0,.29,2.44,5.82,5.82,0,0,0,.89,2,4.38,4.38,0,0,0,1.52,1.35,4.69,4.69,0,0,0,2.24.49,5.47,5.47,0,0,0,2.22-.41,3.86,3.86,0,0,0,1.49-1.14,4.85,4.85,0,0,0,.83-1.79,10,10,0,0,0,.26-2.36v-3a10,10,0,0,0-.26-2.36,5.19,5.19,0,0,0-.83-1.81,3.75,3.75,0,0,0-1.49-1.17,5.47,5.47,0,0,0-2.22-.41A4.69,4.69,0,0,0,397.48,368.93Z"/><path class="a" d="M443.07,361.18a14.06,14.06,0,0,1,5.25,2.87,12.9,12.9,0,0,1,3.35,4.81,19.85,19.85,0,0,1,0,13.54,12.82,12.82,0,0,1-3.35,4.83,14.06,14.06,0,0,1-5.25,2.87,23,23,0,0,1-6.85,1,22.7,22.7,0,0,1-6.82-1,14,14,0,0,1-5.24-2.87,12.58,12.58,0,0,1-3.34-4.83,20.17,20.17,0,0,1,0-13.54,12.73,12.73,0,0,1,3.34-4.81,14,14,0,0,1,5.24-2.87,22.7,22.7,0,0,1,6.82-1A23,23,0,0,1,443.07,361.18Zm-9.36,7a4.24,4.24,0,0,0-1.68,1.25,5.24,5.24,0,0,0-1,2,10.1,10.1,0,0,0-.32,2.64v3.18a10,10,0,0,0,.32,2.63,5.06,5.06,0,0,0,1,2,4.11,4.11,0,0,0,1.68,1.22,6.49,6.49,0,0,0,2.51.43,5.05,5.05,0,0,0,4.23-1.67,7.21,7.21,0,0,0,1.31-4.58v-3.18a10.1,10.1,0,0,0-.32-2.64,5.13,5.13,0,0,0-1-2,4.53,4.53,0,0,0-1.72-1.25,6.44,6.44,0,0,0-2.5-.43A6.33,6.33,0,0,0,433.71,368.21Z"/><path class="a" d="M480.31,361.18a14,14,0,0,1,5.25,2.87,12.79,12.79,0,0,1,3.35,4.81,19.85,19.85,0,0,1,0,13.54,12.71,12.71,0,0,1-3.35,4.83,14,14,0,0,1-5.25,2.87,24.81,24.81,0,0,1-13.67,0,14,14,0,0,1-5.24-2.87,12.68,12.68,0,0,1-3.34-4.83,20.17,20.17,0,0,1,0-13.54,12.85,12.85,0,0,1,3.34-4.81,14,14,0,0,1,5.24-2.87,22.77,22.77,0,0,1,6.83-1A23.21,23.21,0,0,1,480.31,361.18Zm-9.35,7a4.28,4.28,0,0,0-1.69,1.25,5.55,5.55,0,0,0-1,2,10.1,10.1,0,0,0-.32,2.64v3.18a10,10,0,0,0,.32,2.63,5.35,5.35,0,0,0,1,2,4.21,4.21,0,0,0,1.69,1.22,6.45,6.45,0,0,0,2.51.43,5.08,5.08,0,0,0,4.23-1.67,7.27,7.27,0,0,0,1.3-4.58v-3.18a10.12,10.12,0,0,0-.31-2.64,5.27,5.27,0,0,0-1-2,4.53,4.53,0,0,0-1.72-1.25,6.52,6.52,0,0,0-2.51-.43A6.27,6.27,0,0,0,471,368.21Z"/><path class="a" d="M506.57,372.17,516,360.9H529l-10.9,11.89,11.18,17.59H516.63l-6.2-10.12L506.57,384v6.36h-11.1V349.84h11.1v22.33Z"/><path class="a" d="M533.21,383.22a7.84,7.84,0,1,1,7.84,7.84,7.83,7.83,0,0,1-7.84-7.84"/><path class="a" d="M597.83,364.89a7.74,7.74,0,0,1,4.2-4.09,7.93,7.93,0,0,1,6.05,0,7.76,7.76,0,0,1,4.16,4.09,7.57,7.57,0,0,1,.62,3.06,7.78,7.78,0,0,1-.62,3.11,8.08,8.08,0,0,1-1.69,2.48,7.65,7.65,0,0,1-2.47,1.63,8,8,0,0,1-8.55-1.63,8.11,8.11,0,0,1-1.7-2.48,7.78,7.78,0,0,1-.62-3.11A7.57,7.57,0,0,1,597.83,364.89Zm1.28,5.71a6.44,6.44,0,0,0,1.36,2.11,6.21,6.21,0,0,0,2,1.41,6.48,6.48,0,0,0,2.55.51,6.27,6.27,0,0,0,2.52-.51,6.39,6.39,0,0,0,2-1.41A6.58,6.58,0,0,0,611,370.6a7.18,7.18,0,0,0,.49-2.65,7,7,0,0,0-.49-2.6,6.25,6.25,0,0,0-3.38-3.49,6.24,6.24,0,0,0-2.52-.51,6.31,6.31,0,0,0-2.55.51,6.47,6.47,0,0,0-2,1.39,6.39,6.39,0,0,0-1.36,2.1,7,7,0,0,0-.48,2.6A7.17,7.17,0,0,0,599.11,370.6Zm6.43-7.17a3.72,3.72,0,0,1,2.4.65,2.38,2.38,0,0,1,.78,1.95,2.2,2.2,0,0,1-.69,1.8,3.06,3.06,0,0,1-1.7.68l2.6,4h-1.52l-2.48-3.91h-1.49v3.91H602v-9.1Zm-.63,4c.32,0,.62,0,.91,0a2.29,2.29,0,0,0,.76-.18,1.26,1.26,0,0,0,.52-.45,1.45,1.45,0,0,0,.2-.84,1.38,1.38,0,0,0-.17-.73,1.24,1.24,0,0,0-.46-.42,2.08,2.08,0,0,0-.64-.19,4.56,4.56,0,0,0-.72-.06h-1.87v2.9Z"/><path class="a" d="M204.48,407.3a5.61,5.61,0,0,0-4.69,5.4,5.46,5.46,0,0,0,5.43,5.43s178.91-22.93,384.57.45a3.23,3.23,0,0,0,3.36-3.36,3.46,3.46,0,0,0-3.36-3.36S426.13,385.66,204.48,407.3Z"/><path class="a" d="M246.51,438.18H237v8.91h10.7v2.67H233.72V425.07H247.1v2.67H237v7.81h9.56v2.63Z"/><path class="a" d="M257.51,449.76l-8.1-24.69h3.48l3.85,12.16c1,3.34,1.94,6.38,2.64,9.23h.07a95.68,95.68,0,0,1,2.82-9.19l4.17-12.2h3.41L261,449.76Z"/><path class="a" d="M285.28,438.18h-9.56v8.91h10.7v2.67H272.5V425.07h13.37v2.67H275.72v7.81h9.56v2.63Z"/><path class="a" d="M290.56,425.44a33.16,33.16,0,0,1,6.12-.55c3.4,0,5.64.66,7.18,2.05a6.2,6.2,0,0,1,1.94,4.69,6.51,6.51,0,0,1-4.66,6.26V438c1.87.66,3,2.42,3.63,5a44.64,44.64,0,0,0,1.87,6.78h-3.3a30.48,30.48,0,0,1-1.61-5.9c-.73-3.4-2.09-4.69-5-4.8h-3v10.7h-3.18Zm3.18,11.21H297c3.41,0,5.57-1.87,5.57-4.69,0-3.19-2.31-4.58-5.68-4.58a13.27,13.27,0,0,0-3.15.29v9Z"/><path class="a" d="M315.36,449.76V439.28l-7.84-14.21h3.67l3.48,6.81c.91,1.87,1.68,3.37,2.45,5.1h.07c.66-1.62,1.54-3.23,2.49-5.1l3.56-6.81h3.59l-8.24,14.18v10.51Z"/><path class="a" d="M329.69,425.44a28.12,28.12,0,0,1,5.83-.55c3.19,0,5.24.55,6.74,1.79a5.21,5.21,0,0,1,2.09,4.36,5.84,5.84,0,0,1-4.18,5.42v.11a6.28,6.28,0,0,1,5.09,6.16,6.55,6.55,0,0,1-2.12,4.94c-1.69,1.58-4.47,2.31-8.5,2.31a36.56,36.56,0,0,1-4.95-.3V425.44Zm3.19,10.11h2.9c3.33,0,5.31-1.8,5.31-4.18,0-2.86-2.16-4-5.39-4a13.67,13.67,0,0,0-2.82.22Zm0,11.79a17.23,17.23,0,0,0,2.67.15c3.3,0,6.34-1.21,6.34-4.8,0-3.33-2.89-4.76-6.37-4.76h-2.64v9.41Z"/><path class="a" d="M359.19,450.16c-6.56,0-11.1-5.05-11.1-12.53,0-7.83,4.83-13,11.43-13,6.77,0,11.13,5.16,11.13,12.49,0,8.46-5.16,13-11.43,13Zm.14-2.6c5.06,0,7.92-4.65,7.92-10.26,0-4.91-2.57-10-7.88-10s-7.95,4.94-7.95,10.29c0,5.2,2.86,10,7.88,10Z"/><path class="a" d="M374.76,425.4a47.12,47.12,0,0,1,6.82-.51c4.58,0,7.84,1,10,3s3.51,4.91,3.51,8.9a13.21,13.21,0,0,1-3.55,9.6c-2.35,2.3-6.15,3.55-11,3.55a44.71,44.71,0,0,1-5.83-.29V425.4ZM378,447.27a20.16,20.16,0,0,0,3.22.15c6.81,0,10.52-3.82,10.52-10.48,0-5.9-3.27-9.53-10-9.53a18.23,18.23,0,0,0-3.73.33Z"/><path class="a" d="M403.85,449.76V439.28L396,425.07h3.67l3.48,6.81c.91,1.87,1.68,3.37,2.45,5.1h.07c.67-1.62,1.55-3.23,2.5-5.1l3.55-6.81h3.59l-8.24,14.18v10.51Z"/><path class="a" d="M426,425.44a28.12,28.12,0,0,1,5.83-.55c3.18,0,5.24.55,6.74,1.79A5.2,5.2,0,0,1,440.6,431a5.83,5.83,0,0,1-4.17,5.42v.11a6.29,6.29,0,0,1,5.09,6.16,6.55,6.55,0,0,1-2.12,4.94c-1.69,1.58-4.47,2.31-8.5,2.31a36.44,36.44,0,0,1-4.95-.3V425.44Zm3.19,10.11H432c3.33,0,5.32-1.8,5.32-4.18,0-2.86-2.17-4-5.39-4a13.59,13.59,0,0,0-2.82.22v8Zm0,11.79a17.15,17.15,0,0,0,2.67.15c3.3,0,6.34-1.21,6.34-4.8,0-3.33-2.89-4.76-6.37-4.76h-2.64v9.41Z"/><path class="a" d="M458.56,438.18H449v8.91h10.7v2.67H445.78V425.07h13.37v2.67H449v7.81h9.56v2.63Z"/><path class="a" d="M468.53,427.78H461v-2.71H479.3v2.71h-7.55v22h-3.22v-22Z"/><path class="a" d="M481.43,445.88a10.86,10.86,0,0,0,5.67,1.61c3.27,0,5.17-1.69,5.17-4.21,0-2.28-1.32-3.63-4.65-4.88-4-1.46-6.52-3.59-6.52-7,0-3.85,3.19-6.7,8-6.7a11.13,11.13,0,0,1,5.43,1.2l-.88,2.61A9.1,9.1,0,0,0,489,427.3c-3.37,0-4.65,2-4.65,3.7,0,2.31,1.5,3.45,4.91,4.77,4.18,1.65,6.26,3.62,6.26,7.25,0,3.81-2.78,7.14-8.6,7.14a12.78,12.78,0,0,1-6.31-1.61Z"/><path class="a" d="M503.65,420.47h-3.57v-1.29h8.69v1.29h-3.58v10.46h-1.54V420.47Z"/><path class="a" d="M520,425.77c-.09-1.64-.19-3.61-.18-5.07h0c-.4,1.38-.89,2.84-1.48,4.46l-2.08,5.7H515l-1.89-5.59c-.57-1.66-1-3.18-1.36-4.57h0c0,1.47-.12,3.43-.23,5.19l-.31,5h-1.45l.82-11.75h1.94l2,5.69c.49,1.44.89,2.73,1.19,3.95h0c.3-1.18.72-2.47,1.24-3.95l2.09-5.69H521l.73,11.75h-1.49Z"/></svg>