<svg xmlns="http://www.w3.org/2000/svg" viewBox="0 0 800 800"><defs><style>.a{fill:#fff;}</style></defs><title>logoSilhouette</title><path class="a" d="M215.88,348.89l-60.27,21c6.79,55.78,60.27,81.61,60.27,81.61h0s53.48-25.83,60.27-81.61Zm0,98.3h0s-49-23.67-55.19-74.75l55.19-19.24,55.2,19.24C264.86,423.52,215.88,447.19,215.88,447.19Z"/><path class="a" d="M205.91,408.23c-2.36,2-2.69,2.69-2.73,3.28s1,1.9,1.49,2.4,1.9,2.15,2.9,2.32,1.73-.46,2.85-.79,2.32-.37,2.9.24.5,1.33.79,1.33h20.37s-4.14-3.61-5.76-4.7-2.23-1.55-2.32-2.3.71-1.2,1.29-1.69a2.13,2.13,0,0,0,.78-1.08c0-.12-8.15.79-12.21,0-2.72-.56-5.67-2.86-7-3.77a17.41,17.41,0,0,0-4.76-2.4c-.63-.11,2,1.9,2.24,2.52A3.49,3.49,0,0,1,205.91,408.23Z"/><path class="a" d="M183.3,410a6.75,6.75,0,0,0-1.78-2.81,30.76,30.76,0,0,1,6.29-2.32,4.26,4.26,0,0,0,2.61-2.44,35.17,35.17,0,0,0,1.46-5.82c-.21-1,.49-1.06-.59-1.1a27.4,27.4,0,0,1-7.24-1.78,12.28,12.28,0,0,1-3.52-2.44,7.76,7.76,0,0,1-2.24-4.72c-.21-7.37,6.29-8.45,9.11-8.11,5.7.67,9.19,4.92,14.41,5.46a7.92,7.92,0,0,0,4.47-.58c5.15-2.63,3.27-6.5-3.17-3.89-.87.35-3.62.91-4.53.58a4.13,4.13,0,0,1-2.9-3.07,9.27,9.27,0,0,1-.17-1.65A1.68,1.68,0,0,1,197,376a7.33,7.33,0,0,0,1.82,1.86,2.66,2.66,0,0,0-.79-1.78,22.13,22.13,0,0,0-2.57-1.49s-1.08-1.39.42-1c1,.25,1.86-.19,2.89,0,2.24.42,1.83,1.91,4.14,3,.61.28.87.58,1.54.58a16.7,16.7,0,0,1,3.11-.2c5.87,1.2,2.19,6.29,0,7.41-5.1,2.6-11.1.9-15.24-1.66-2.81-1.74-11.79-2.32-9.6,4.55,1.43,4.48,8.94,3.94,11.63,4.56,1.46.33,1.74-1.57,2.9-1.66s2-.66,4.68-.41c2.23.21,4.14.16,5.8.5a17.53,17.53,0,0,0,5.49.18,13.26,13.26,0,0,0,5.11-2.75c1-.87-2.09-.26-2.34-.14h0a10.75,10.75,0,0,1,2.54-2.68c1.83-1.16,2.45-3.23,3.19-3.64s-1.82.5-2.4,1.16.08-1.33,1.24-2.65a39.76,39.76,0,0,0,2.75-3.07c.79-1.41-1.93.39-1.79.05,1-2.41,2.89-2.45,4.59-4.1a3.71,3.71,0,0,1,3.15-1.25c1.07.09-1.74-1.74-.66-1.4s4.3-.5,7.78-.05,7.29,1.54,6.54,2.94-1,1.78,0,2,2.11.29,2.19,1.2-.11,1.43.72,1.68a9,9,0,0,1,2.68,1c1.08.67,1.81.33,1.28,1.2-.62,1-.7,1.37-1.2,2.36a5.35,5.35,0,0,1-1.36,1.95c-.58.5-1.12-.79-1.7-.95s-2-.65-2.49-.07-1.65.48-1.65,1.14a1.59,1.59,0,0,0,1.74,1.41c1-.08,2,.27,2.4-.25.58-.78,1.51-.7,1.51-.2a3.11,3.11,0,0,1-.23,2.38c-.66,1-.7,1.63-1.61,1.55s-.85-1.47-1.59-1.22-1.27-.56-2.76.76-1.82.21-2,2.36a3.8,3.8,0,0,0,.75,3.07c.91.91-1.25,1.16-2.9-1.66,0,0-.3,3.09.33,3.81.25.29,1.49.33,1.49.33a39.51,39.51,0,0,0,5-.58,35.84,35.84,0,0,0,5.34-2.56c1.7-1,3.81.41,3.81.41s1.91-.95,2.73-.21,1.16,2.53.58,2.94a14,14,0,0,0-1.49,1.41s-.49-1.32-1.07-.66a3.17,3.17,0,0,1-1.66.83s-2.44-.5-2.69-1.25-.46,1.07-1,1.49c-1,.74-2,0-3.52,1.25s-3,1.07-4.34,2.07-2.82,1.49-3.07,2.4l-.25.91s-3.31-1.49-4.55-1.41-.83-.33,0,.66,6,9.69,6.71,10.6,1.4,1.49,2.48,1.08,2.65-1.16,3.73-.5,1.07,1.41,1.57,1.66a5.27,5.27,0,0,0,1.51.11c8.89-10.83,16.7-25.09,18.87-43l-51.27-17.87L164.6,374.41c2.18,17.91,10,32.19,18.93,43C183.52,416,183.42,410.71,183.3,410Z"/><path class="a" d="M202.8,417s-2.19-1.9-3.81-3.06-3.52-2.7-3-2.9a3,3,0,0,0,1.91-2.2,1.88,1.88,0,0,0-.13-1.24,12.77,12.77,0,0,0-1.4,1.37,4.84,4.84,0,0,1-2.24,1.57,18.88,18.88,0,0,1-6.38,0,12.67,12.67,0,0,1,.63,1.49,8.55,8.55,0,0,1,.16,3.32c-.08.66-.57,1.44.09,1.44a3.18,3.18,0,0,0,1.81-.74,2.72,2.72,0,0,1,1.78-.7,2.69,2.69,0,0,1,1.7,1.11c.25.38,0,.54.75.54Z"/><path class="a" d="M240.81,377.55c.54.41.75.37,1.16,0s.42-.5.42-.5l-2.61-.2C240.4,376.93,240.27,377.13,240.81,377.55Z"/><path class="a" d="M215.89,425.39A201,201,0,0,0,186,420.31a107.27,107.27,0,0,0,29.88,23.54h0a107.5,107.5,0,0,0,30.63-24.38C233.94,420.93,223.39,423,215.89,425.39Zm-15.7,3.32-1.52-1-1.52,1,.58-1.66-1.52-1h1.84l.62-1.7.61,1.7h1.85l-1.52,1Zm7.62,4.68-2.29-1.55-2.29,1.55.86-2.52-2.29-1.49h2.79l.93-2.58.93,2.58h2.79L207,430.87Zm11.33,3.84L215.88,435l-3.25,2.19,1.23-3.58-3.25-2.11h4l1.31-3.65,1.32,3.65h4l-3.26,2.11Zm9.4-3.84-2.29-1.55L224,433.39l.86-2.52-2.29-1.49h2.79l.93-2.58.93,2.58H230l-2.3,1.49Zm6.08-4.68-1.52-1-1.52,1,.57-1.66-1.51-1h1.84l.62-1.7.61,1.7h1.85l-1.52,1Z"/><path class="a" d="M321.53,414.85a2.16,2.16,0,0,1-1.46.44h-26V383.22a2.2,2.2,0,0,1,.43-1.47,2.88,2.88,0,0,1,1.55-.79v-1H282.9v1a3.23,3.23,0,0,1,1.55.8,2.18,2.18,0,0,1,.43,1.46V419a2.16,2.16,0,0,1-.43,1.46,3.23,3.23,0,0,1-1.55.81v1h37.17a2.18,2.18,0,0,1,1.46.43,3.23,3.23,0,0,1,.8,1.55h1V413.31h-1A3.06,3.06,0,0,1,321.53,414.85Z"/><path class="a" d="M328.45,392.12a3,3,0,0,1,1.35.74,2,2,0,0,1,.37,1.3v25.3a2,2,0,0,1-.39,1.33,2.56,2.56,0,0,1-1.33.72v.77h10.68v-.77a2.82,2.82,0,0,1-1.35-.76,2,2,0,0,1-.38-1.31V394.16a2,2,0,0,1,.38-1.31,2.66,2.66,0,0,1,1.35-.73v-.77H328.45v.77Z"/><path class="a" d="M371.19,392.12a2.75,2.75,0,0,1,1.35.73,2,2,0,0,1,.38,1.31v17l-16.21-16.46a2.45,2.45,0,0,1-.86-1.54c0-.52.4-.88,1.19-1.08v-.78h-11.6v.78a2.9,2.9,0,0,1,1.35.74,2,2,0,0,1,.37,1.3v25.3a2,2,0,0,1-.39,1.33,2.56,2.56,0,0,1-1.33.72v.77h10v-.77a2.81,2.81,0,0,1-1.34-.75,2,2,0,0,1-.39-1.32V401.9l16,16.18c.78.8,1.27,1.34,1.49,1.62a1.32,1.32,0,0,1,.32.79c0,.52-.39.85-1.19,1v.77h10.82v-.77a2.82,2.82,0,0,1-1.35-.76,2,2,0,0,1-.37-1.31V394.16a2,2,0,0,1,.37-1.31,2.66,2.66,0,0,1,1.35-.73v-.77h-10v.77Z"/><path class="a" d="M416.91,416.29a1.9,1.9,0,0,1-1.28.38H396.46v-7.54h11.38a2,2,0,0,1,1.31.4,2.86,2.86,0,0,1,.71,1.37h.73V402h-.73a3,3,0,0,1-.74,1.38,1.9,1.9,0,0,1-1.28.39H396.46V397h18.33a2,2,0,0,1,1.31.38,2.76,2.76,0,0,1,.72,1.39h.72v-9.14h-.72a2.77,2.77,0,0,1-.72,1.38,1.92,1.92,0,0,1-1.31.39H387.51v.77a2.83,2.83,0,0,1,1.34.75,1.89,1.89,0,0,1,.38,1.29v25.3a2,2,0,0,1-.39,1.33,2.61,2.61,0,0,1-1.33.72v.77h28.12a1.91,1.91,0,0,1,1.29.4,2.66,2.66,0,0,1,.71,1.37h.75v-9.14h-.75A2.76,2.76,0,0,1,416.91,416.29Z"/><path class="a" d="M449.55,405.54c-1.94-1.18-4.77-1.91-8.49-2.21L436.8,403a22.13,22.13,0,0,1-5.42-.89,2,2,0,0,1-1.4-1.93q0-2,2.91-3.12a13.52,13.52,0,0,1,4.64-.74,20.56,20.56,0,0,1,6.06.91,11.67,11.67,0,0,1,4.53,2.32,1.86,1.86,0,0,1,.57,1.44l.65.36,3.64-7.21-.65-.36a1.91,1.91,0,0,1-1.11.6,4.41,4.41,0,0,1-1.53-.52,37.67,37.67,0,0,0-6.41-2.47,22.66,22.66,0,0,0-5.78-.71,17.77,17.77,0,0,0-9.6,2.43,8.64,8.64,0,0,0-4.26,7.77,9,9,0,0,0,1,4.17,7.64,7.64,0,0,0,2.7,3,10.58,10.58,0,0,0,3.15,1.3,36,36,0,0,0,5.23.71l4.23.36a22.35,22.35,0,0,1,4.67.75,2.42,2.42,0,0,1,1.94,2.35c0,1.39-.93,2.41-2.8,3a15.71,15.71,0,0,1-5.13.78,25,25,0,0,1-6.55-.9,11.81,11.81,0,0,1-4.67-2.11,1.64,1.64,0,0,1-.53-1.22v-.22l-.68-.28-3.1,7.57.68.28a1.26,1.26,0,0,1,1-.67,1.87,1.87,0,0,1,.73.2,31,31,0,0,0,13.19,2.95q6.76,0,10.73-2.62a8.83,8.83,0,0,0,2.83-12.13A8.34,8.34,0,0,0,449.55,405.54Z"/><path class="a" d="M486.43,392.12c.89.2,1.33.68,1.33,1.44a7.68,7.68,0,0,1-1.3,3.09l-7.58,13.8-7.54-14a5.87,5.87,0,0,1-.91-2.76,1.57,1.57,0,0,1,1.27-1.57v-.78H458.94v.78a2.66,2.66,0,0,1,1.34.73,2,2,0,0,1,.38,1.31v25.3a2,2,0,0,1-.39,1.33,2.56,2.56,0,0,1-1.33.72v.77h10v-.77a2.9,2.9,0,0,1-1.35-.76,2,2,0,0,1-.38-1.32v-17.5l11,20.35,11.66-20.35v17.53a2,2,0,0,1-.39,1.33,2.6,2.6,0,0,1-1.34.72v.77h10.68v-.77a2.66,2.66,0,0,1-1.35-.75,2.05,2.05,0,0,1-.38-1.32V394.16a2,2,0,0,1,.38-1.31,2.59,2.59,0,0,1,1.35-.73v-.78H486.43v.78Z"/><path class="a" d="M537.84,418.41,526.4,396.23a5.14,5.14,0,0,1-.67-2.23,2,2,0,0,1,1.48-1.88v-.77H515.48v.77c1,.42,1.51,1,1.51,1.77a5.29,5.29,0,0,1-.62,2.26l-11,22.87a6.88,6.88,0,0,1-1.17,1.85,2.78,2.78,0,0,1-1.52.64v.77h11.09v-.77c-1.15-.24-1.72-.8-1.72-1.69a5,5,0,0,1,.56-1.9l1.57-3.37H528l1.67,3.16a4.89,4.89,0,0,1,.67,2.12c0,.92-.58,1.48-1.75,1.68v.77H541v-.77a3.25,3.25,0,0,1-1.65-.75A10.88,10.88,0,0,1,537.84,418.41Zm-21.63-8.2,4.71-9.95,4.94,9.95Z"/><path class="a" d="M574,417.14,562.78,404,573,395.63q2.71-2.42,3.41-2.88a4.23,4.23,0,0,1,1.71-.63v-.77H564.49v.77c1,.18,1.57.55,1.57,1.1s-.43,1.12-1.27,1.8l-11.37,9.28V394.16a2,2,0,0,1,.38-1.31,2.66,2.66,0,0,1,1.35-.73v-.77H544.47v.77a2.82,2.82,0,0,1,1.35.75,1.93,1.93,0,0,1,.38,1.29v25.3a2,2,0,0,1-.39,1.33,2.6,2.6,0,0,1-1.34.72v.77h10.68v-.77a2.82,2.82,0,0,1-1.35-.76,2,2,0,0,1-.38-1.31v-7.68l4.3-3.57L566,418.36c.72.84,1.14,1.34,1.26,1.52a1,1,0,0,1,.17.53c0,.49-.5.86-1.48,1.1v.77H579.2v-.77a5.16,5.16,0,0,1-2.14-1A31.22,31.22,0,0,1,574,417.14Z"/><path class="a" d="M613.06,416.29a1.9,1.9,0,0,1-1.28.38H592.6v-7.54H604a1.92,1.92,0,0,1,1.31.4,2.78,2.78,0,0,1,.72,1.37h.72V402H606a3,3,0,0,1-.74,1.38,1.91,1.91,0,0,1-1.29.39H592.61V397h18.33a2,2,0,0,1,1.31.38,2.76,2.76,0,0,1,.71,1.39h.73v-9.14H613a2.77,2.77,0,0,1-.71,1.38,1.93,1.93,0,0,1-1.31.39H583.65v.77a2.82,2.82,0,0,1,1.35.75,2,2,0,0,1,.38,1.29v25.3a2,2,0,0,1-.39,1.33,2.6,2.6,0,0,1-1.34.72v.77h28.13a1.93,1.93,0,0,1,1.29.4,2.59,2.59,0,0,1,.7,1.37h.76v-9.14h-.76A2.76,2.76,0,0,1,613.06,416.29Z"/><path class="a" d="M652.35,420.47a17.6,17.6,0,0,1-2.5-3.07l-5.71-8.16q4.47-.93,6.48-3.05a8.17,8.17,0,0,0,2-5.87c0-3.29-1.09-5.67-3.26-7.12a10,10,0,0,0-3.62-1.45,32.11,32.11,0,0,0-5.88-.4H620.08v.77a2.82,2.82,0,0,1,1.35.75,2,2,0,0,1,.38,1.29v25.3a2,2,0,0,1-.39,1.33,2.6,2.6,0,0,1-1.34.72v.77h10.68v-.77a2.82,2.82,0,0,1-1.35-.76,2,2,0,0,1-.38-1.31v-9.86h7.24l6,8.84a3.84,3.84,0,0,1,.86,1.85c0,.57-.46,1-1.4,1.24v.77h12.7v-.77A4.33,4.33,0,0,1,652.35,420.47ZM639.93,404H629v-7h10.89a8,8,0,0,1,4.17.78,3,3,0,0,1,1.17,2.73,2.93,2.93,0,0,1-1.67,3A9.19,9.19,0,0,1,639.93,404Z"/></svg>