<svg xmlns="http://www.w3.org/2000/svg" viewBox="0 0 800 800"><defs><style>.a{fill:#fff;}</style></defs><title>logoSilhouette</title><path class="a" d="M174.2,347.51h49.37q12.35,0,19,6.12a19.76,19.76,0,0,1,6.61,15.13,19.09,19.09,0,0,1-4.72,13,20.94,20.94,0,0,1-9.2,5.7q9.21,2.22,13.54,7.6t4.34,13.54A23.24,23.24,0,0,1,250,420.52a22.65,22.65,0,0,1-8.44,8.39q-3.31,1.92-10,2.79a115.05,115.05,0,0,1-11.82,1.17H174.2V347.51ZM200.8,381h11.47q6.18,0,8.59-2.12a7.77,7.77,0,0,0,2.42-6.15,7.31,7.31,0,0,0-2.42-5.82q-2.42-2.1-8.41-2.1H200.81V381Zm0,33.54h13.45q6.81,0,9.61-2.42a8.14,8.14,0,0,0,2.79-6.49,7.52,7.52,0,0,0-2.76-6.08q-2.77-2.31-9.7-2.3H200.8v17.29Z"/><path class="a" d="M327,407.83H279.53q.64,5.71,3.09,8.5a11.24,11.24,0,0,0,9,4,13.37,13.37,0,0,0,6.63-1.75,15.47,15.47,0,0,0,4.14-3.9l23.34,2.16q-5.35,9.31-12.92,13.36t-21.72,4q-12.29,0-19.33-3.46a28.42,28.42,0,0,1-11.67-11,33.19,33.19,0,0,1-4.63-17.73q0-14.51,9.29-23.47t25.64-9q13.27,0,21,4A27.09,27.09,0,0,1,323,385.3q4,7.62,4,19.85v2.68Zm-24.1-11.35q-.7-6.87-3.7-9.84a11.6,11.6,0,0,0-16.91,1.51c-1.44,1.87-2.35,4.64-2.74,8.33Z"/><path class="a" d="M359.6,347.51V371h13v17.35h-13v21.9c0,2.64.26,4.38.76,5.23a4.33,4.33,0,0,0,4.08,2,26.26,26.26,0,0,0,7.33-1.51l1.75,16.35a77.24,77.24,0,0,1-16.42,1.92q-8.85,0-13-2.26a13.85,13.85,0,0,1-6.2-6.89q-2-4.64-2-15V388.38h-8.73V371h8.73V359.68Z"/><path class="a" d="M434.14,347.51h26.32v50.86a42.87,42.87,0,0,1-2.36,14.28,30.76,30.76,0,0,1-7.4,11.75,29.45,29.45,0,0,1-10.56,7.07,53.25,53.25,0,0,1-18.46,2.85,116.45,116.45,0,0,1-13.59-.87A35.49,35.49,0,0,1,395.77,430a30.8,30.8,0,0,1-9-7.36,27,27,0,0,1-5.62-9.83,51,51,0,0,1-2.45-14.43V347.51H405v52.07q0,7,3.87,10.9t10.74,3.93q6.82,0,10.69-3.87t3.87-11V347.51Z"/><path class="a" d="M466.41,404.63l25.09-1.57q.81,6.1,3.32,9.31,4.08,5.19,11.64,5.18,5.66,0,8.71-2.64a8,8,0,0,0,3.06-6.15,7.81,7.81,0,0,0-2.91-5.93q-2.91-2.62-13.51-4.95-17.35-3.9-24.75-10.37A20.83,20.83,0,0,1,469.61,371a22.38,22.38,0,0,1,3.81-12.43,25.29,25.29,0,0,1,11.47-9.2q7.67-3.35,21-3.35,16.36,0,25,6.08t10.22,19.36L516.19,373q-1-5.77-4.16-8.39c-2.12-1.74-5-2.62-8.77-2.62q-4.59,0-6.92,1.95a6,6,0,0,0-2.33,4.75,4.76,4.76,0,0,0,1.92,3.67q1.86,1.68,8.85,3.14,17.28,3.72,24.77,7.54t10.89,9.46a24,24,0,0,1,3.4,12.64,27,27,0,0,1-4.54,15.13,28.34,28.34,0,0,1-12.69,10.51q-8.15,3.58-20.55,3.58-21.78,0-30.16-8.38T466.41,404.63Z"/><path class="a" d="M602.68,418.78H572.73l-4.16,14.09H541.64l32.08-85.36h28.77l32.08,85.36H607Zm-5.47-18.46-9.43-30.68-9.32,30.68Z"/></svg>