<svg xmlns="http://www.w3.org/2000/svg" viewBox="0 0 800 800"><defs><style>.a{fill:#fff;}</style></defs><title>logoSilhouette</title><path class="a" d="M237,412.87c5.07-7.14,9.39-11.27,12.59-13-3.2-1.51-7.52-6-12.59-13-5.07-7.15-8.27-13-9.39-17.48-1.13,4.32-4.32,10.15-9.21,17.29-5.26,6.95-9.39,11.46-12.77,13.15,3.38,1.5,7.51,5.82,12.77,13,4.89,6.95,8.08,13,9.21,17.66C228.77,425.83,231.78,419.82,237,412.87Z"/><path class="a" d="M359.43,370.67A29.89,29.89,0,0,1,330,393.61a30.28,30.28,0,1,1-.16-60.55c18.29,0,28.07,14.11,29.64,23.26h-15.6c-1.66-4.34-6.07-10.17-14.11-10.17-10,0-15.61,8.75-15.61,17,0,8.84,6,17.35,15.68,17.35,9.31,0,13.09-7.81,14-9.85Z"/><path class="a" d="M372.91,392.5H356.75l23.1-58.33H392.7l22.39,58.33H398.77L396,384.07H375.59Zm12.69-40.6-6.31,20.34h12.86Z"/><path class="a" d="M417.93,334.17H437c9.14,0,14.81,1.65,18.05,4.18,4.88,3.78,7.09,9.54,7.09,15.92a19.25,19.25,0,0,1-2.92,10.56,16.59,16.59,0,0,1-7.56,6.23l12.06,21.44H448.36l-15.22-28.14h2.44c3.79,0,7-.32,9-1.58s3.31-3.94,3.31-7.17a7.93,7.93,0,0,0-3.46-6.78,12.18,12.18,0,0,0-6.07-1.58h-5.52V392.5h-14.9V334.17Z"/><path class="a" d="M467.94,334.17h21.44c6,0,10.8,1.34,14.11,3.94s5.2,6.38,5.2,11.35a13.17,13.17,0,0,1-6.77,11.74c9.37,3.32,9.61,11.12,9.61,13.56,0,4.66-1.81,9.78-5.36,12.7-5.36,4.49-9.23,5-19.08,5H467.94Zm14.9,22.15h5.27a10.6,10.6,0,0,0,3.95-.55,4.1,4.1,0,0,0,2.36-4.1,3.81,3.81,0,0,0-2.28-3.87,10.39,10.39,0,0,0-4-.55h-5.27Zm0,23.1h7a11.06,11.06,0,0,0,4.42-.71,4.82,4.82,0,0,0,3-4.89,4.33,4.33,0,0,0-2.83-4.42,12.3,12.3,0,0,0-4.58-.63h-7Z"/><path class="a" d="M513.58,364c0-19.07,14.66-30.9,30.74-30.9,18,0,30.82,14,30.82,30.27s-12.77,30.28-30.9,30.28c-18.36,0-30.66-14.59-30.66-29.57V364Zm14.9-.71c0,8.92,6.07,17.27,16.08,17.27,10.56,0,15.69-9.62,15.69-17.1s-5.12-17.27-15.85-17.27c-10.33,0-15.92,8.83-15.92,17v.07Z"/><path class="a" d="M616.06,369.72l-.31-35.55H630V392.5H617.09l-22.31-35.16.31,35.16H580.83V334.17h12.84Z"/><path class="a" d="M335.23,430.46a18,18,0,0,0-4.76-4.57,17,17,0,0,0-9.84-3,17.2,17.2,0,0,0-17.35,17.69c0,10.76,8.12,17.86,17.4,17.86A18.39,18.39,0,0,0,332,454.62a15.57,15.57,0,0,0,5.72-8.87H316.67v-3.89h26.57a21,21,0,0,1-1.89,8.18c-3.66,8-12.14,12.6-20.67,12.6a21.79,21.79,0,0,1-22.16-22c0-12.71,10-21.87,22.22-21.87,8.59,0,16.55,4.8,19.87,11.73Z"/><path class="a" d="M354.85,461.84h-5.1l17.69-42.37H372l17.52,42.37h-5.15l-4.92-11.91H359.71Zm14.71-37L361.14,446H378Z"/><path class="a" d="M400.45,461.84V419.47h6.64L422.78,455l15.63-35.55h6.64v42.37h-4.46l.11-37.68-16.43,37.68h-3l-16.49-37.68.12,37.68Z"/><path class="a" d="M460.34,419.47H465v42.37h-4.69Z"/><path class="a" d="M509.86,454.86l-.06-35.39h4.58v42.37H509.8l-25.14-35.67.11,35.67h-4.58V419.47H485Z"/><path class="a" d="M564.15,430.46a17.81,17.81,0,0,0-4.76-4.57,17,17,0,0,0-9.84-3A17.2,17.2,0,0,0,532.2,440.6c0,10.76,8.13,17.86,17.4,17.86a18.39,18.39,0,0,0,11.34-3.84,15.59,15.59,0,0,0,5.73-8.87H545.6v-3.89h26.56a20.94,20.94,0,0,1-1.88,8.18c-3.67,8-12.15,12.6-20.68,12.6a21.79,21.79,0,0,1-22.15-22c0-12.71,10-21.87,22.21-21.87,8.59,0,16.55,4.8,19.87,11.73Z"/><path class="a" d="M278.38,475.15H176.91a6.94,6.94,0,0,1-6.93-6.94V331.79a6.94,6.94,0,0,1,6.93-6.94H278.38a6.94,6.94,0,0,1,6.93,6.94V468.21A6.94,6.94,0,0,1,278.38,475.15Zm-100-145a3,3,0,0,0-3,3V466.59a3,3,0,0,0,3,3H277a3,3,0,0,0,3-3V333.13a3,3,0,0,0-3-3Z"/></svg>