<svg xmlns="http://www.w3.org/2000/svg" xmlns:xlink="http://www.w3.org/1999/xlink" viewBox="0 0 800 800"><defs><style>.a,.b,.c,.d,.e,.f{fill-rule:evenodd;}.a{fill:url(#a);}.b{fill:url(#b);}.c{fill:url(#c);}.d{fill:url(#d);}.e{fill:#151515;}.f{fill:url(#e);}</style><linearGradient id="a" x1="348.19" y1="225.55" x2="377.67" y2="429.72" gradientTransform="matrix(1, 0, 0, -1, 0, 802)" gradientUnits="userSpaceOnUse"><stop offset="0" stop-color="#ea0000"/><stop offset="1" stop-color="#c34b4c"/></linearGradient><linearGradient id="b" x1="475.5" y1="258.9" x2="469.39" y2="425.05" gradientTransform="matrix(1, 0, 0, -1, 0, 802)" gradientUnits="userSpaceOnUse"><stop offset="0" stop-color="#ea0000"/><stop offset="1" stop-color="#a70000"/></linearGradient><linearGradient id="c" x1="364.64" y1="598.56" x2="363.44" y2="433.39" gradientTransform="matrix(1, 0, 0, -1, 0, 802)" gradientUnits="userSpaceOnUse"><stop offset="0" stop-color="#8d8d8d"/><stop offset="1" stop-color="#5d5d5d"/></linearGradient><linearGradient id="d" x1="451.27" y1="612.78" x2="452.55" y2="421.95" xlink:href="#c"/><linearGradient id="e" x1="387.18" y1="251.66" x2="418.92" y2="427.36" xlink:href="#b"/></defs><title>icon</title><polygon class="a" points="358.16 595.22 287.31 498.12 370.6 387.16 352.12 357.84 422.41 377.54 433.34 486.7 417.8 462.05 358.16 595.22"/><polygon class="b" points="512.69 477.47 500.78 542.89 450.61 461.08 440.91 487.1 429.8 377.26 476.91 390.62 471.19 405.93 512.69 477.47"/><polygon class="c" points="353.04 204.78 304.79 225.24 369.93 331.47 353.27 349.62 423.14 368.36 414.09 283.37 404.61 293.7 353.04 204.78"/><polygon class="d" points="484 319.62 457.67 271.35 432.56 304.82 420.04 282.89 429.21 368.26 475.99 380.94 465.09 361.85 484 319.62"/><path class="e" d="M435.33,369.92l40.65,11-10.89-19.09L484,319.62l-1.12-2.06A420.53,420.53,0,0,0,435.33,369.92Z"/><path class="f" d="M348.69,582.24l9.47,13L417.8,462.05l15.54,24.65-10-100.36q-6.07,8.66-11.85,17.75C373.11,464.5,352,528,348.69,582.24Z"/></svg>